# Blender 3.5.1
# www.blender.org
g unnamed_object1_nadel_unnamed_object1_nadel_unnamed_object1_nad_unnamed_object1_nadel_unnamed_object1_nadel_unnamed_object1_nad
v 0.244686 1.854370 -6.079379
v -0.008436 0.049682 -8.049999
v -0.029064 -0.120002 -5.290000
v -1.363122 -0.184689 -6.640000
v 0.067500 -2.490936 -0.970000
v -3.064686 -2.310000 -2.170000
v 0.002814 -0.056250 -1.330000
v -2.362500 1.022814 -1.180000
v -2.662500 0.109686 -1.420000
v -1.551564 2.942814 -2.380001
v 0.041250 -0.005628 -1.750000
v 1.211250 2.720622 -1.390000
v 0.041250 2.528436 -1.090001
v 2.753436 2.618436 -1.720001
v 0.135000 0.034686 -1.120000
v 2.801250 0.303750 -0.670000
v 2.947500 -0.307500 -1.060000
v 2.136564 -2.480628 -2.650000
v 0.032814 -0.011250 -1.750000
v -1.046250 -2.498436 -1.390000
v 1.551564 2.088750 -1.210000
v 3.344064 0.317813 -2.620000
v 0.150000 0.005622 -1.930000
v 1.919064 -1.873128 -1.600000
v 2.415000 -1.061250 -1.900000
v 0.314064 -2.853750 -3.039999
v 0.090936 -0.018750 -2.350000
v -1.876878 -1.518750 -1.450000
v -1.140936 -2.211564 -1.270000
v -2.903436 -0.289687 -2.680000
v -0.009372 -0.007500 -1.720000
v -1.958436 1.810314 -1.600000
v -1.981872 1.232813 -2.560000
v 0.029064 2.875314 -2.740000
v 0.101250 -0.017814 -2.350000
v 1.860000 1.120314 -1.690000
v 1.766250 0.479999 -3.430000
v 2.096250 -1.560002 -4.719999
v 0.086250 -0.030001 -4.060000
v 0.416250 -1.860001 -3.640000
v 0.626250 -1.770001 -3.790000
v -1.383750 -1.650003 -5.110000
v 0.026250 0.029998 -4.480000
v -1.653750 0.449999 -3.790000
v -1.773750 -0.150001 -3.880000
v -1.563750 1.739999 -4.420001
v -0.033750 0.089999 -3.820000
v 0.536250 1.679998 -3.520000
v -0.513750 2.069998 -4.000000
v 1.646250 1.649998 -4.960001
v 0.026250 0.029998 -4.480000
v 1.736250 -0.180001 -3.880000
v 1.795314 2.373750 -0.460000
v 3.180000 -0.000000 -0.970000
v 0.120936 -0.000000 -0.580000
v 1.205622 -1.514064 0.200000
v 2.374686 -1.905000 -0.640000
v 0.060000 -3.408750 -1.509999
v 0.060000 -0.019686 -1.000000
v -2.353128 -1.584372 -0.670000
v -1.923750 -2.613750 -0.069999
v -3.398436 0.029064 -1.210000
v -0.039372 -0.000000 -0.370000
v -1.394064 2.414064 -0.190000
v -2.243436 1.564686 -0.700000
v 0.070314 3.639372 -1.660001
v 0.070314 -0.018750 -1.000000
v 2.065314 1.545000 0.200000
v 2.200314 -0.765000 -2.470000
v 1.110936 -2.567816 -4.030000
v 0.033750 -0.068437 -3.280000
v -1.218750 -1.585315 -3.280000
v -0.771564 -1.532815 -3.250000
v -2.436564 -0.793130 -4.660000
v -0.004686 -0.018751 -3.700000
v -1.804686 1.075313 -3.160000
v -1.773750 0.968435 -2.980000
v -0.499686 2.272499 -3.940001
v -0.019686 0.081563 -3.070000
v 1.202814 1.537499 -3.220000
v 0.615000 1.904063 -3.310000
v 2.340936 1.014370 -4.510000
v -0.000936 -0.028129 -3.700000
v 2.241564 -0.752815 -3.490000
v -0.530622 -1.662189 -6.520000
v -0.010314 0.033746 -8.069686
v -0.007500 -0.077816 -5.170000
v 1.193436 -0.812817 -6.839686
v 1.367814 0.266249 -4.120000
v 1.372500 -1.023753 -5.410000
v 0.112500 -0.045002 -4.750000
v -0.079686 -1.351880 -4.329999
v 0.742500 -1.185001 -4.480000
v -1.086564 -1.215003 -5.800000
v 0.052500 0.014062 -5.170000
v -1.266564 0.374062 -4.480000
v -1.336872 -0.236252 -4.570000
v -1.097814 1.229062 -5.110001
v -0.006564 0.074062 -4.510000
v 0.279378 1.324685 -4.210001
v -0.119064 1.431562 -4.690001
v 1.163436 1.039683 -5.650000
v 1.395000 -0.336566 -4.570000
v 1.168128 -0.701252 -4.690000
v 0.258750 -1.617189 -5.980000
v 0.059064 -0.033752 -5.320000
v -1.090314 -0.821252 -4.900000
v -1.050000 -0.445316 -5.590000
v -1.165314 0.975933 -6.400000
v 0.059064 0.049684 -5.740000
v -0.618750 1.237497 -5.050001
v -1.069686 0.854998 -5.110000
v 0.104064 1.723120 -5.680000
v 0.059064 0.134998 -5.080000
v 1.146564 0.815620 -4.780000
v 0.700314 1.173748 -5.440000
v 1.420314 -0.009381 -6.730000
v 0.790314 -1.146566 -5.020000
v 2.526564 0.868122 -2.140000
v 2.769372 -1.669687 -3.040000
v 0.057186 -0.034687 -2.620000
v 0.264372 -1.858128 -2.410000
v 0.838122 -2.161880 -3.130000
v -1.549686 -2.554688 -3.760000
v -0.004686 -0.022501 -3.040000
v -2.398122 -0.499687 -2.800000
v -1.800936 -0.828750 -2.560000
v -2.434686 1.589063 -3.670000
v -0.081564 0.045000 -2.410000
v -0.048750 2.258435 -2.470001
v -0.840000 2.202186 -2.650001
v 1.547814 2.864999 -3.790000
v 0.003750 -0.026251 -3.040000
v 2.427186 0.870000 -2.350000
v 0.760314 1.946249 -3.490000
v 2.746872 0.974999 -3.640000
v 0.090000 -0.000001 -3.130000
v 1.750314 -0.919686 -2.440000
v 0.052500 0.014062 -5.170000
v 0.059064 0.049684 -5.740000
vn -0.6752 0.7365 0.0402
vn -0.5499 0.8339 0.0471
vn -0.6171 0.5227 -0.5881
vn -0.6171 0.5227 -0.5882
vn -0.2129 -0.0737 0.9743
vn -0.3950 -0.2204 0.8919
vn -0.2127 -0.0725 0.9744
vn -0.1061 0.1557 0.9821
vn -0.2130 0.3826 0.8990
vn -0.1095 0.1478 0.9829
vn -0.2129 0.3827 0.8990
vn 0.0215 0.2077 0.9780
vn 0.2360 0.3912 0.8895
vn 0.0142 0.2095 0.9777
vn 0.0815 -0.2920 0.9530
vn 0.3471 -0.5262 0.7763
vn 0.0403 -0.2849 0.9577
vn 0.2172 -0.0708 0.9736
vn 0.5805 -0.0338 0.8135
vn 0.2167 -0.0683 0.9738
vn 0.1198 -0.2260 0.9667
vn 0.1422 -0.5987 0.7882
vn 0.1205 -0.2258 0.9667
vn -0.3189 0.0071 0.9478
vn -0.6259 0.0028 0.7799
vn -0.3050 -0.0067 0.9523
vn -0.2220 0.1266 0.9668
vn -0.2302 0.3208 0.9187
vn -0.2188 0.1238 0.9679
vn -0.2302 0.3208 0.9188
vn 0.1952 -0.1643 0.9669
vn 0.5316 -0.4845 0.6947
vn 0.1936 -0.1172 0.9740
vn 0.5316 -0.4845 0.6948
vn -0.1770 -0.2177 0.9598
vn -0.4503 -0.5565 0.6983
vn -0.1892 -0.1967 0.9620
vn -0.4503 -0.5565 0.6982
vn -0.2407 0.1276 0.9622
vn -0.3959 0.2705 0.8776
vn -0.2337 0.1269 0.9640
vn -0.3959 0.2705 0.8775
vn 0.0791 0.2166 0.9731
vn 0.3850 0.4748 0.7914
vn 0.0766 0.2094 0.9748
vn 0.1526 0.2104 0.9656
vn 0.4473 0.2042 0.8708
vn 0.1218 0.1957 0.9731
vn -0.0186 -0.1495 0.9886
vn -0.0068 -0.3870 0.9220
vn -0.0227 -0.1471 0.9889
vn -0.2462 0.0320 0.9687
vn -0.4675 0.0271 0.8836
vn -0.2411 0.0373 0.9698
vn -0.1942 0.1744 0.9653
vn -0.1883 0.5744 0.7966
vn -0.1867 0.1728 0.9671
vn -0.0971 -0.3351 0.9372
vn 0.0467 -0.6216 0.7819
vn -0.1147 -0.3290 0.9374
vn 0.0467 -0.6217 0.7819
vn -0.3675 -0.0650 0.9277
vn -0.7735 -0.2371 0.5878
vn -0.3439 -0.0764 0.9359
vn -0.0034 0.3685 0.9296
vn -0.0499 0.5911 0.8050
vn -0.0032 0.3683 0.9297
vn 0.2999 0.0949 0.9492
vn 0.6511 0.2304 0.7232
vn 0.2705 0.1122 0.9562
vn 0.3843 -0.9225 -0.0359
vn 0.0350 -0.9986 -0.0385
vn 0.2885 -0.4975 -0.8181
vn 0.2885 -0.4976 -0.8180
vn 0.2401 -0.3124 0.9191
vn 0.6163 -0.5796 0.5332
vn 0.2310 -0.3210 0.9185
vn 0.6162 -0.5796 0.5332
vn -0.3333 -0.2362 0.9128
vn -0.4111 -0.4388 0.7990
vn -0.1921 -0.2870 0.9385
vn 0.2327 -0.6057 0.7609
vn -0.3522 0.1481 0.9241
vn -0.5362 0.3426 0.7714
vn -0.3481 0.1504 0.9253
vn -0.5362 0.3426 0.7715
vn 0.5442 -0.2092 0.8124
vn 0.2072 0.2119 0.9551
vn 0.1255 0.3327 0.9347
vn 0.3735 0.4171 0.8286
vn -0.0721 -0.3915 0.9173
vn 0.0154 -0.8371 0.5468
vn -0.0839 -0.3907 0.9167
vn 0.0154 -0.8371 0.5469
vn -0.4932 0.1152 0.8622
vn -0.5722 0.3109 0.7589
vn -0.5111 -0.1211 0.8510
vn -0.6801 -0.6176 0.3950
vn -0.1296 0.3539 0.9263
vn -0.1234 0.6324 0.7647
vn -0.1253 0.3527 0.9273
vn -0.1234 0.6324 0.7648
vn 0.5027 -0.4789 0.7197
vn 0.5862 0.0879 0.8054
vn 0.6835 0.0029 0.7299
vn 0.8030 0.1226 0.5832
vn 0.1121 -0.1104 0.9875
vn 0.3237 -0.2431 0.9144
vn 0.0904 -0.1045 0.9904
vn -0.0369 -0.2533 0.9667
vn -0.1558 -0.4344 0.8871
vn -0.0341 -0.2536 0.9667
vn -0.1558 -0.4345 0.8871
vn -0.3626 0.1945 0.9114
vn -0.4978 0.2844 0.8194
vn -0.3622 0.1923 0.9121
vn 0.0354 0.2391 0.9703
vn 0.2465 0.6015 0.7599
vn 0.0162 0.2408 0.9704
vn 0.0501 0.3532 0.9342
vn 0.2635 0.4364 0.8603
vn 0.0490 0.3489 0.9359
vt 0.998462 1.000652
vt -0.001537 0.998910
vt 1.000204 0.000653
vt 0.000205 -0.001088
vt 0.998462 1.000652
vt -0.001537 0.998910
vt 1.000204 0.000653
vt 0.000205 -0.001088
vt 0.998462 1.000652
vt -0.001537 0.998910
vt 1.000204 0.000653
vt 0.000205 -0.001088
vt 0.998462 1.000652
vt -0.001537 0.998910
vt 1.000204 0.000653
vt 0.000205 -0.001088
vt 0.998462 1.000652
vt -0.001537 0.998910
vt 1.000204 0.000653
vt 0.000205 -0.001088
vt 0.998462 1.000652
vt -0.001537 0.998910
vt 1.000204 0.000653
vt 0.000205 -0.001088
vt 0.998462 1.000652
vt -0.001537 0.998910
vt 1.000204 0.000653
vt 0.000205 -0.001088
vt 0.998462 1.000652
vt -0.001537 0.998910
vt 1.000204 0.000653
vt 0.000205 -0.001088
vt 0.998462 1.000652
vt -0.001537 0.998910
vt 1.000204 0.000653
vt 0.000205 -0.001088
vt 0.998462 1.000652
vt -0.001537 0.998910
vt 1.000204 0.000653
vt 0.000205 -0.001088
vt 0.998462 1.000652
vt -0.001537 0.998910
vt 1.000204 0.000653
vt 0.000205 -0.001088
vt 0.998462 1.000652
vt -0.001537 0.998910
vt 1.000204 0.000653
vt 0.000205 -0.001088
vt 0.998462 1.000652
vt -0.001537 0.998910
vt 1.000204 0.000653
vt 0.000205 -0.001088
vt 0.998462 1.000652
vt -0.001537 0.998910
vt 1.000204 0.000653
vt 0.000205 -0.001088
vt 0.998462 1.000652
vt -0.001537 0.998910
vt 1.000204 0.000653
vt 0.000205 -0.001088
vt 0.998462 1.000652
vt -0.001537 0.998910
vt 1.000204 0.000653
vt 0.000205 -0.001088
vt 0.998462 1.000652
vt -0.001537 0.998910
vt 1.000204 0.000653
vt 0.000205 -0.001088
vt 0.998462 1.000652
vt -0.001537 0.998910
vt 1.000204 0.000653
vt 0.000205 -0.001088
vt 0.998462 1.000652
vt -0.001537 0.998910
vt 1.000204 0.000653
vt 0.000205 -0.001088
vt 0.998462 1.000652
vt -0.001537 0.998910
vt 1.000204 0.000653
vt 0.000205 -0.001088
vt 0.998462 1.000652
vt -0.001537 0.998910
vt 1.000204 0.000653
vt 0.000205 -0.001088
vt 0.998462 1.000652
vt -0.001537 0.998910
vt 1.000204 0.000653
vt 0.000205 -0.001088
vt 0.998462 1.000652
vt -0.001537 0.998910
vt 1.000204 0.000653
vt 0.000205 -0.001088
vt 0.998462 1.000652
vt -0.001537 0.998910
vt 1.000204 0.000653
vt 0.000205 -0.001088
vt 0.998462 1.000652
vt -0.001537 0.998910
vt 1.000204 0.000653
vt 0.000205 -0.001088
vt 0.998462 1.000652
vt -0.001537 0.998910
vt 0.000205 -0.001088
vt 0.998462 1.000652
vt -0.001537 0.998910
vt 1.000204 0.000653
vt 0.000205 -0.001088
vt 0.998462 1.000652
vt -0.001537 0.998910
vt 1.000204 0.000653
vt 0.000205 -0.001088
vt 0.998462 1.000652
vt -0.001537 0.998910
vt 1.000204 0.000653
vt 0.000205 -0.001088
vt 0.998462 1.000652
vt -0.001537 0.998910
vt 0.000205 -0.001088
vt 0.998462 1.000652
vt -0.001537 0.998910
vt 1.000204 0.000653
vt 0.000205 -0.001088
vt 0.998462 1.000652
vt -0.001537 0.998910
vt 1.000204 0.000653
vt 0.000205 -0.001088
vt 0.998462 1.000652
vt -0.001537 0.998910
vt 1.000204 0.000653
vt 0.000205 -0.001088
vt 0.998462 1.000652
vt -0.001537 0.998910
vt 1.000204 0.000653
vt 0.000205 -0.001088
vt 0.998462 1.000652
vt -0.001537 0.998910
vt 1.000204 0.000653
vt 0.000205 -0.001088
vt 1.000204 0.000653
vt 1.000204 0.000653
s 1
f 2/2/1 3/3/2 1/1/3
f 2/2/1 4/4/4 3/3/2
f 6/6/5 5/5/6 7/7/7
f 6/6/5 7/7/7 8/8/6
f 10/10/8 9/9/9 11/11/10
f 10/10/8 11/11/10 12/12/11
f 14/14/12 13/13/13 15/15/14
f 14/14/12 15/15/14 16/16/13
f 18/18/15 17/17/16 19/19/17
f 18/18/15 19/19/17 20/20/16
f 22/22/18 21/21/19 23/23/20
f 22/22/18 23/23/20 24/24/19
f 26/26/21 25/25/22 27/27/23
f 26/26/21 27/27/23 28/28/22
f 30/30/24 29/29/25 31/31/26
f 30/30/24 31/31/26 32/32/25
f 34/34/27 33/33/28 35/35/29
f 34/34/27 35/35/29 36/36/30
f 38/38/31 37/37/32 39/39/33
f 38/38/31 39/39/33 40/40/34
f 42/42/35 41/41/36 43/43/37
f 42/42/35 43/43/37 44/44/38
f 46/46/39 45/45/40 47/47/41
f 46/46/39 47/47/41 48/48/42
f 50/50/43 49/49/44 51/51/45
f 50/50/43 51/51/45 52/52/44
f 54/54/46 53/53/47 55/55/48
f 54/54/46 55/55/48 56/56/47
f 58/58/49 57/57/50 59/59/51
f 58/58/49 59/59/51 60/60/50
f 62/62/52 61/61/53 63/63/54
f 62/62/52 63/63/54 64/64/53
f 66/66/55 65/65/56 67/67/57
f 66/66/55 67/67/57 68/68/56
f 70/70/58 69/69/59 71/71/60
f 70/70/58 71/71/60 72/72/61
f 74/74/62 73/73/63 75/75/64
f 74/74/62 75/75/64 76/76/63
f 78/78/65 77/77/66 79/79/67
f 78/78/65 79/79/67 80/80/66
f 82/82/68 81/81/69 83/83/70
f 82/82/68 83/83/70 84/84/69
f 86/86/71 87/87/72 85/85/73
f 86/86/71 88/88/74 87/87/72
f 90/90/75 89/89/76 91/91/77
f 90/90/75 91/91/77 92/92/78
f 94/94/79 93/93/80 139/139/81
f 96/96/82 94/94/79 139/139/81
f 98/98/83 97/97/84 99/99/85
f 98/98/83 99/99/85 100/100/86
f 101/101/87 95/95/88 102/102/89
f 102/102/89 95/95/88 103/103/90
f 105/105/91 104/104/92 106/106/93
f 105/105/91 106/106/93 107/107/94
f 109/109/95 108/108/96 140/140/97
f 111/111/98 109/109/95 140/140/97
f 113/113/99 112/112/100 114/114/101
f 113/113/99 114/114/101 115/115/102
f 116/116/103 110/110/104 117/117/105
f 117/117/105 110/110/104 118/118/106
f 120/120/107 119/119/108 121/121/109
f 120/120/107 121/121/109 122/122/108
f 124/124/110 123/123/111 125/125/112
f 124/124/110 125/125/112 126/126/113
f 128/128/114 127/127/115 129/129/116
f 128/128/114 129/129/116 130/130/115
f 132/132/117 131/131/118 133/133/119
f 132/132/117 133/133/119 134/134/118
f 136/136/120 135/135/121 137/137/122
f 136/136/120 137/137/122 138/138/121
g unnamed_object1_stamm_stamm.jpg_unnamed_object1_stamm_stamm.jpg_unnamed_object1_stamm_stamm.jpg_unnamed_object1_stamm_stamm
v 0.315936 0.282186 0.530936
v 0.150936 0.143436 -0.963436
v -0.101250 0.143436 -0.963436
v -0.030936 0.368436 0.530936
v 0.246564 0.227813 -3.057814
v 0.037500 0.227813 -3.057814
v 0.118122 0.084370 -4.673128
v -0.068436 0.084370 -4.673128
v 0.072186 0.029062 -5.868436
v -0.022500 0.029062 -5.868436
v 0.141564 -0.285936 0.530936
v 0.229686 -0.096564 -0.963436
v 0.465936 0.038436 0.530936
v 0.024372 -0.245628 -0.963436
v 0.142500 -0.092815 -3.057814
v 0.311250 0.029063 -3.057814
v 0.024372 -0.203438 -4.673128
v 0.176250 -0.092816 -4.673128
v 0.024372 -0.118130 -5.868436
v 0.102186 -0.061880 -5.868436
v 0.072186 0.029062 -5.868436
v -0.224064 0.038436 0.530936
v -0.180000 -0.096564 -0.963436
v -0.050622 0.029063 -3.057814
v -0.126564 -0.092816 -4.673128
v -0.052500 -0.061880 -5.868436
v 0.102186 -0.061880 -5.868436
v 0.024372 -0.118130 -5.868436
v -0.052500 -0.061880 -5.868436
v -0.022500 0.029062 -5.868436
v 0.072186 0.029062 -5.868436
vn -0.3463 -0.8688 0.3540
vn -0.6332 -0.5816 0.5106
vn -0.9593 0.0425 -0.2792
vn -0.7039 0.5063 0.4982
vn 0.5369 -0.7360 0.4124
vn -0.1815 -0.8785 -0.4419
vn 0.1608 -0.5797 -0.7988
vn 0.4072 0.6338 -0.6576
vn 0.9489 0.2664 0.1693
vn 0.9260 0.3739 -0.0517
vn 0.4725 -0.8788 0.0672
vn 0.2016 -0.9682 -0.1484
vn -0.8770 -0.2932 0.3805
vn -0.9729 0.2298 0.0265
vn 0.2686 -0.9579 -0.1013
vn 0.7587 0.3030 0.5767
vn 0.9715 0.2003 -0.1270
vn 0.7123 -0.6836 0.1593
vn -0.6994 0.7143 0.0250
vn -0.1221 0.8714 -0.4752
vn -0.9713 0.2000 0.1287
vn -0.1232 0.9923 -0.0090
vn 0.5354 0.8413 0.0743
vn 0.9774 -0.0435 -0.2070
vn -0.8365 -0.4759 -0.2715
vn -0.8515 0.3802 0.3611
vn 0.0001 -0.0002 1.0000
vn -0.0002 -0.0001 1.0000
vn -0.0001 -0.0004 1.0000
vn -0.0000 -0.0000 1.0000
vt 0.340248 -1.132812
vt 0.699219 -1.132812
vt 0.576786 -0.791243
vt 0.393198 -0.794448
vt 0.269531 -0.791243
vt 0.393198 -0.794448
vt 0.330513 -1.132812
vt 0.285156 -1.132812
vt 0.642889 -0.312588
vt 0.359277 -0.320284
vt 0.386843 -0.312588
vt 0.359277 -0.320284
vt 0.525577 0.056399
vt 0.435539 0.045240
vt 0.320740 0.056399
vt 0.435539 0.045240
vt 0.550947 0.521345
vt 0.387078 0.521345
vt 0.424930 0.505824
vt 0.703125 -1.132812
vt 0.568741 -0.794448
vt 0.495808 -1.132812
vt 0.677232 -0.794448
vt 0.595972 -0.320284
vt 0.505563 -0.320284
vt 0.624895 0.045240
vt 0.552568 0.045240
vt 0.576415 0.505824
vt 0.518553 0.505824
vt 0.000000 1.000000
vt 0.495808 -1.132812
vt 0.568741 -0.794448
vt 0.505563 -0.320284
vt 0.552568 0.045240
vt 0.518553 0.505824
vt 0.000000 1.000000
vt 0.000000 1.000000
vt 0.000000 1.000000
vt 0.000000 1.000000
vt 0.424930 0.505824
s 1
f 141/141/123 142/144/124 152/161/125
f 141/141/123 152/161/125 153/162/126
f 142/143/124 141/142/123 143/145/127
f 142/143/124 143/145/127 145/149/128
f 142/144/124 145/150/128 152/161/125
f 143/145/127 141/142/123 144/147/129
f 143/146/127 144/148/129 162/171/130
f 143/146/127 162/171/130 163/172/131
f 143/146/127 163/172/131 164/173/132
f 145/149/128 143/145/127 146/151/133
f 145/149/128 146/151/133 148/155/134
f 145/150/128 147/154/135 158/167/136
f 146/152/133 143/146/127 164/173/132
f 147/153/135 145/149/128 148/155/134
f 147/153/135 148/155/134 149/157/137
f 148/156/134 146/152/133 164/173/132
f 148/156/134 164/173/132 165/174/138
f 148/156/134 165/174/138 166/175/139
f 149/157/137 148/155/134 150/158/140
f 150/159/140 148/156/134 166/175/139
f 151/160/141 152/161/125 154/163/142
f 151/160/141 154/163/142 162/171/130
f 152/161/125 151/160/141 153/162/126
f 152/161/125 145/150/128 156/165/143
f 154/163/142 152/161/125 155/164/144
f 154/163/142 155/164/144 164/173/132
f 155/164/144 152/161/125 156/165/143
f 155/164/144 156/165/143 158/167/136
f 155/164/144 157/166/145 164/173/132
f 156/165/143 145/150/128 158/167/136
f 157/166/145 155/164/144 158/167/136
f 157/166/145 158/167/136 159/168/146
f 157/166/145 159/168/146 166/175/139
f 158/167/136 147/154/135 171/180/147
f 159/168/146 158/167/136 160/169/148
f 160/169/148 158/167/136 171/180/147
f 162/171/130 154/163/142 163/172/131
f 163/172/131 154/163/142 164/173/132
f 164/173/132 157/166/145 165/174/138
f 165/174/138 157/166/145 166/175/139
f 167/176/149 161/170/150 169/178/151
f 168/177/152 167/176/149 169/178/151
f 169/178/151 161/170/150 170/179/152
