# Blender 3.5.1
# www.blender.org
g unnamed_object1_nadel_unnamed_object1_nadel
v 0.244686 6.079378 1.854372
v -0.008436 8.049999 0.049685
v -0.029064 5.290000 -0.120000
v -1.363122 6.640000 -0.184687
v 0.067500 0.970000 -2.490936
v -3.064686 2.170000 -2.310000
v 0.002814 1.330000 -0.056250
v -2.362500 1.180000 1.022814
v -2.662500 1.420000 0.109686
v -1.551564 2.380000 2.942814
v 0.041250 1.750000 -0.005628
v 1.211250 1.390000 2.720622
v 0.041250 1.090000 2.528436
v 2.753436 1.720000 2.618436
v 0.135000 1.120000 0.034686
v 2.801250 0.670000 0.303750
v 2.947500 1.060000 -0.307500
v 2.136564 2.650000 -2.480628
v 0.032814 1.750000 -0.011250
v -1.046250 1.390000 -2.498436
v 1.551564 1.210000 2.088750
v 3.344064 2.620000 0.317814
v 0.150000 1.930000 0.005622
v 1.919064 1.600000 -1.873128
v 2.415000 1.900000 -1.061250
v 0.314064 3.040000 -2.853750
v 0.090936 2.350000 -0.018750
v -1.876878 1.450000 -1.518750
v -1.140936 1.270000 -2.211564
v -2.903436 2.680000 -0.289686
v -0.009372 1.720000 -0.007500
v -1.958436 1.600000 1.810314
v -1.981872 2.560000 1.232814
v 0.029064 2.740000 2.875314
v 0.101250 2.350000 -0.017814
v 1.860000 1.690000 1.120314
v 1.766250 3.430000 0.480000
v 2.096250 4.720000 -1.560000
v 0.086250 4.060000 -0.030000
v 0.416250 3.640000 -1.860000
v 0.626250 3.790000 -1.770000
v -1.383750 5.110000 -1.650001
v 0.026250 4.480000 0.030000
v -1.653750 3.790000 0.450000
v -1.773750 3.880000 -0.150000
v -1.563750 4.420000 1.740000
v -0.033750 3.820000 0.090000
v 0.536250 3.520000 1.680000
v -0.513750 4.000000 2.070000
v 1.646250 4.960000 1.650000
v 0.026250 4.480000 0.030000
v 1.736250 3.880000 -0.180000
v 1.795314 0.460000 2.373750
v 3.180000 0.970000 -0.000000
v 0.120936 0.580000 -0.000000
v 1.205622 -0.200000 -1.514064
v 2.374686 0.640000 -1.905000
v 0.060000 1.510000 -3.408750
v 0.060000 1.000000 -0.019686
v -2.353128 0.670000 -1.584372
v -1.923750 0.070000 -2.613750
v -3.398436 1.210000 0.029064
v -0.039372 0.370000 -0.000000
v -1.394064 0.190000 2.414064
v -2.243436 0.700000 1.564686
v 0.070314 1.660000 3.639372
v 0.070314 1.000000 -0.018750
v 2.065314 -0.200000 1.545000
v 2.200314 2.470000 -0.765000
v 1.110936 4.030000 -2.567814
v 0.033750 3.280000 -0.068436
v -1.218750 3.280000 -1.585314
v -0.771564 3.250000 -1.532814
v -2.436564 4.660000 -0.793128
v -0.004686 3.700000 -0.018750
v -1.804686 3.160000 1.075314
v -1.773750 2.980000 0.968436
v -0.499686 3.940000 2.272500
v -0.019686 3.070000 0.081564
v 1.202814 3.220000 1.537500
v 0.615000 3.310000 1.904064
v 2.340936 4.510000 1.014372
v -0.000936 3.700000 -0.028128
v 2.241564 3.490000 -0.752814
v -0.530622 6.520000 -1.662187
v -0.010314 8.069686 0.033749
v -0.007500 5.170000 -0.077814
v 1.193436 6.839686 -0.812815
v 1.367814 4.120000 0.266250
v 1.372500 5.410000 -1.023751
v 0.112500 4.750000 -0.045000
v -0.079686 4.330000 -1.351878
v 0.742500 4.480000 -1.185000
v -1.086564 5.800000 -1.215001
v 0.052500 5.170000 0.014064
v -1.266564 4.480000 0.374064
v -1.336872 4.570000 -0.236250
v -1.097814 5.110000 1.229064
v -0.006564 4.510000 0.074064
v 0.279378 4.210000 1.324686
v -0.119064 4.690000 1.431564
v 1.163436 5.650000 1.039685
v 1.395000 4.570000 -0.336564
v 1.168128 4.690000 -0.701250
v 0.258750 5.980000 -1.617187
v 0.059064 5.320000 -0.033750
v -1.090314 4.900000 -0.821250
v -1.050000 5.590000 -0.445314
v -1.165314 6.400000 0.975935
v 0.059064 5.740000 0.049686
v -0.618750 5.050000 1.237499
v -1.069686 5.110000 0.855000
v 0.104064 5.680000 1.723122
v 0.059064 5.080000 0.135000
v 1.146564 4.780000 0.815622
v 0.700314 5.440000 1.173750
v 1.420314 6.730000 -0.009379
v 0.790314 5.020000 -1.146564
v 2.526564 2.140000 0.868122
v 2.769372 3.040000 -1.669686
v 0.057186 2.620000 -0.034686
v 0.264372 2.410000 -1.858128
v 0.838122 3.130000 -2.161878
v -1.549686 3.760000 -2.554686
v -0.004686 3.040000 -0.022500
v -2.398122 2.800000 -0.499686
v -1.800936 2.560000 -0.828750
v -2.434686 3.670000 1.589064
v -0.081564 2.410000 0.045000
v -0.048750 2.470000 2.258436
v -0.840000 2.650000 2.202186
v 1.547814 3.790000 2.865000
v 0.003750 3.040000 -0.026250
v 2.427186 2.350000 0.870000
v 0.760314 3.490000 1.946250
v 2.746872 3.640000 0.975000
v 0.090000 3.130000 -0.000000
v 1.750314 2.440000 -0.919686
v 0.052500 5.170000 0.014064
v 0.059064 5.740000 0.049686
vn -0.6968 -0.0388 0.7162
vn -0.9905 -0.0011 0.1378
vn -0.1090 -0.0602 0.9922
vn 0.2123 0.9744 0.0742
vn 0.3484 0.9286 -0.1280
vn 0.0632 0.9602 0.2719
vn 0.1077 0.9825 -0.1517
vn -0.1280 0.9535 -0.2729
vn 0.3359 0.9417 -0.0198
vn -0.0182 0.9778 -0.2087
vn -0.2264 0.9740 0.0032
vn 0.1917 0.8953 -0.4022
vn -0.0660 0.9543 0.2916
vn 0.2469 0.8237 0.5105
vn -0.3681 0.9295 0.0252
vn -0.2172 0.9736 0.0703
vn -0.2172 0.9736 0.0704
vn -0.2303 0.8614 0.4527
vn -0.1695 0.9310 -0.3232
vn -0.1210 0.9666 0.2257
vn 0.2901 0.9243 0.2478
vn -0.5115 0.8433 0.1650
vn 0.3150 0.9491 -0.0015
vn 0.3256 0.8796 -0.3468
vn 0.2653 0.9008 0.3439
vn 0.2203 0.9674 -0.1249
vn 0.0200 0.9909 -0.1331
vn 0.4117 0.9045 -0.1117
vn -0.1986 0.9675 0.1564
vn 0.1441 0.8257 0.5454
vn -0.4839 0.8299 -0.2777
vn 0.1830 0.9611 0.2068
vn 0.1831 0.9611 0.2068
vn 0.5377 0.8315 -0.1395
vn -0.2197 0.8384 0.4988
vn 0.2393 0.9625 -0.1281
vn 0.0718 0.9569 -0.2814
vn 0.3945 0.9183 0.0319
vn -0.0827 0.9750 -0.2062
vn -0.0827 0.9750 -0.2061
vn -0.3850 0.9159 0.1136
vn 0.2358 0.8420 -0.4853
vn -0.1239 0.9719 -0.2002
vn -0.1253 0.9825 0.1380
vn -0.1084 0.8500 -0.5155
vn 0.0203 0.9887 0.1488
vn 0.2652 0.9535 0.1435
vn -0.2257 0.9633 0.1450
vn 0.2422 0.9696 -0.0354
vn 0.2422 0.9696 -0.0355
vn 0.2311 0.9336 -0.2738
vn 0.2391 0.9491 0.2050
vn 0.1924 0.9657 -0.1742
vn -0.2417 0.9549 -0.1723
vn 0.5902 0.7944 -0.1433
vn 0.1102 0.9379 0.3289
vn 0.4337 0.7944 0.4253
vn -0.2281 0.9552 0.1883
vn 0.3427 0.9357 0.0837
vn 0.3427 0.9357 0.0836
vn 0.4486 0.7688 -0.4557
vn 0.1238 0.7938 0.5954
vn 0.0026 0.9296 -0.3686
vn -0.2495 0.8800 -0.4041
vn 0.2546 0.9166 -0.3082
vn -0.2835 0.9533 -0.1038
vn -0.4307 0.8481 0.3085
vn -0.0789 0.8653 -0.4950
vn 0.3314 0.0366 -0.9428
vn 0.9527 0.0126 -0.3038
vn -0.5532 0.0315 -0.8324
vn -0.2350 0.9188 0.3171
vn -0.2350 0.9188 0.3170
vn 0.1765 0.6957 0.6963
vn -0.5612 0.8085 -0.1773
vn 0.2087 0.9352 0.2859
vn 0.2087 0.9352 0.2860
vn 0.5818 0.8033 -0.1274
vn -0.2327 0.7609 0.6057
vn 0.3505 0.9246 -0.1492
vn 0.1259 0.9240 -0.3611
vn 0.5417 0.8371 0.0769
vn -0.5442 0.8124 0.2092
vn -0.2056 0.9528 -0.2233
vn 0.1992 0.7869 -0.5840
vn 0.0745 0.9171 0.3917
vn 0.6167 0.6959 0.3679
vn -0.4933 0.8232 0.2809
vn 0.5234 0.8475 0.0879
vn 0.0998 0.8679 -0.4866
vn 0.6801 0.3950 0.6176
vn 0.1282 0.9265 -0.3537
vn -0.1937 0.9196 -0.3419
vn 0.4367 0.8374 -0.3287
vn -0.5027 0.7197 0.4788
vn -0.5880 0.8024 -0.1024
vn -0.5880 0.8024 -0.1025
vn -0.4663 0.6025 -0.6477
vn -0.0902 0.9904 0.1049
vn -0.0901 0.9904 0.1049
vn 0.0587 0.9391 0.3387
vn -0.2319 0.9630 -0.1373
vn 0.0352 0.9667 0.2534
vn 0.2325 0.9636 0.1321
vn -0.1640 0.9180 0.3611
vn 0.3620 0.9121 -0.1925
vn 0.3620 0.9121 -0.1926
vn 0.2552 0.9023 -0.3474
vn 0.4560 0.8894 -0.0309
vn -0.0230 0.9706 -0.2395
vn -0.0231 0.9706 -0.2395
vn -0.4298 0.9029 -0.0047
vn 0.3889 0.8198 -0.4203
vn -0.0502 0.9346 -0.3521
vn -0.0502 0.9346 -0.3520
vn -0.1394 0.9812 -0.1335
vn 0.0418 0.8340 -0.5502
vt 0.998462 1.000652
vt -0.001537 0.998910
vt 1.000204 0.000653
vt 0.000205 -0.001088
vt 0.998462 1.000652
vt -0.001537 0.998910
vt 1.000204 0.000653
vt 0.000205 -0.001088
vt 0.998462 1.000652
vt -0.001537 0.998910
vt 1.000204 0.000653
vt 0.000205 -0.001088
vt 0.998462 1.000652
vt -0.001537 0.998910
vt 1.000204 0.000653
vt 0.000205 -0.001088
vt 0.998462 1.000652
vt -0.001537 0.998910
vt 1.000204 0.000653
vt 0.000205 -0.001088
vt 0.998462 1.000652
vt -0.001537 0.998910
vt 1.000204 0.000653
vt 0.000205 -0.001088
vt 0.998462 1.000652
vt -0.001537 0.998910
vt 1.000204 0.000653
vt 0.000205 -0.001088
vt 0.998462 1.000652
vt -0.001537 0.998910
vt 1.000204 0.000653
vt 0.000205 -0.001088
vt 0.998462 1.000652
vt -0.001537 0.998910
vt 1.000204 0.000653
vt 0.000205 -0.001088
vt 0.998462 1.000652
vt -0.001537 0.998910
vt 1.000204 0.000653
vt 0.000205 -0.001088
vt 0.998462 1.000652
vt -0.001537 0.998910
vt 1.000204 0.000653
vt 0.000205 -0.001088
vt 0.998462 1.000652
vt -0.001537 0.998910
vt 1.000204 0.000653
vt 0.000205 -0.001088
vt 0.998462 1.000652
vt -0.001537 0.998910
vt 1.000204 0.000653
vt 0.000205 -0.001088
vt 0.998462 1.000652
vt -0.001537 0.998910
vt 1.000204 0.000653
vt 0.000205 -0.001088
vt 0.998462 1.000652
vt -0.001537 0.998910
vt 1.000204 0.000653
vt 0.000205 -0.001088
vt 0.998462 1.000652
vt -0.001537 0.998910
vt 1.000204 0.000653
vt 0.000205 -0.001088
vt 0.998462 1.000652
vt -0.001537 0.998910
vt 1.000204 0.000653
vt 0.000205 -0.001088
vt 0.998462 1.000652
vt -0.001537 0.998910
vt 1.000204 0.000653
vt 0.000205 -0.001088
vt 0.998462 1.000652
vt -0.001537 0.998910
vt 1.000204 0.000653
vt 0.000205 -0.001088
vt 0.998462 1.000652
vt -0.001537 0.998910
vt 1.000204 0.000653
vt 0.000205 -0.001088
vt 0.998462 1.000652
vt -0.001537 0.998910
vt 1.000204 0.000653
vt 0.000205 -0.001088
vt 0.998462 1.000652
vt -0.001537 0.998910
vt 1.000204 0.000653
vt 0.000205 -0.001088
vt 0.998462 1.000652
vt -0.001537 0.998910
vt 1.000204 0.000653
vt 0.000205 -0.001088
vt 0.998462 1.000652
vt -0.001537 0.998910
vt 1.000204 0.000653
vt 0.000205 -0.001088
vt 0.998462 1.000652
vt -0.001537 0.998910
vt 1.000204 0.000653
vt 0.000205 -0.001088
vt 0.998462 1.000652
vt -0.001537 0.998910
vt 0.000205 -0.001088
vt 0.998462 1.000652
vt -0.001537 0.998910
vt 1.000204 0.000653
vt 0.000205 -0.001088
vt 0.998462 1.000652
vt -0.001537 0.998910
vt 1.000204 0.000653
vt 0.000205 -0.001088
vt 0.998462 1.000652
vt -0.001537 0.998910
vt 1.000204 0.000653
vt 0.000205 -0.001088
vt 0.998462 1.000652
vt -0.001537 0.998910
vt 0.000205 -0.001088
vt 0.998462 1.000652
vt -0.001537 0.998910
vt 1.000204 0.000653
vt 0.000205 -0.001088
vt 0.998462 1.000652
vt -0.001537 0.998910
vt 1.000204 0.000653
vt 0.000205 -0.001088
vt 0.998462 1.000652
vt -0.001537 0.998910
vt 1.000204 0.000653
vt 0.000205 -0.001088
vt 0.998462 1.000652
vt -0.001537 0.998910
vt 1.000204 0.000653
vt 0.000205 -0.001088
vt 0.998462 1.000652
vt -0.001537 0.998910
vt 1.000204 0.000653
vt 0.000205 -0.001088
vt 1.000204 0.000653
vt 1.000204 0.000653
s 1
f 2/2/1 3/3/1 1/1/2
f 2/2/1 4/4/3 3/3/1
f 6/6/4 7/7/4 5/5/5
f 6/6/4 8/8/6 7/7/4
f 10/10/7 11/11/7 9/9/8
f 10/10/7 12/12/9 11/11/7
f 14/14/10 15/15/10 13/13/11
f 14/14/10 16/16/12 15/15/10
f 18/18/13 19/19/13 17/17/14
f 18/18/13 20/20/15 19/19/13
f 22/22/16 23/23/17 21/21/18
f 22/22/16 24/24/19 23/23/17
f 26/26/20 27/27/20 25/25/21
f 26/26/20 28/28/22 27/27/20
f 30/30/23 31/31/23 29/29/24
f 30/30/23 32/32/25 31/31/23
f 34/34/26 35/35/26 33/33/27
f 34/34/26 36/36/28 35/35/26
f 38/38/29 39/39/29 37/37/30
f 38/38/29 40/40/31 39/39/29
f 42/42/32 43/43/33 41/41/34
f 42/42/32 44/44/35 43/43/33
f 46/46/36 47/47/36 45/45/37
f 46/46/36 48/48/38 47/47/36
f 50/50/39 51/51/40 49/49/41
f 50/50/39 52/52/42 51/51/40
f 54/54/43 55/55/43 53/53/44
f 54/54/43 56/56/45 55/55/43
f 58/58/46 59/59/46 57/57/47
f 58/58/46 60/60/48 59/59/46
f 62/62/49 63/63/50 61/61/51
f 62/62/49 64/64/52 63/63/50
f 66/66/53 67/67/53 65/65/54
f 66/66/53 68/68/55 67/67/53
f 70/70/56 71/71/56 69/69/57
f 70/70/56 72/72/58 71/71/56
f 74/74/59 75/75/60 73/73/61
f 74/74/59 76/76/62 75/75/60
f 78/78/63 79/79/63 77/77/64
f 78/78/63 80/80/65 79/79/63
f 82/82/66 83/83/66 81/81/67
f 82/82/66 84/84/68 83/83/66
f 86/86/69 87/87/69 85/85/70
f 86/86/69 88/88/71 87/87/69
f 90/90/72 91/91/73 89/89/74
f 90/90/72 92/92/75 91/91/73
f 94/94/76 139/139/77 93/93/78
f 96/96/79 139/139/77 94/94/76
f 98/98/80 99/99/80 97/97/81
f 98/98/80 100/100/82 99/99/80
f 101/101/83 102/102/84 95/95/84
f 102/102/84 103/103/85 95/95/84
f 105/105/86 106/106/86 104/104/87
f 105/105/86 107/107/88 106/106/86
f 109/109/89 140/140/89 108/108/90
f 111/111/91 140/140/89 109/109/89
f 113/113/92 114/114/92 112/112/93
f 113/113/92 115/115/94 114/114/92
f 116/116/95 117/117/96 110/110/97
f 117/117/96 118/118/98 110/110/97
f 120/120/99 121/121/100 119/119/101
f 120/120/99 122/122/102 121/121/100
f 124/124/103 125/125/103 123/123/104
f 124/124/103 126/126/105 125/125/103
f 128/128/106 129/129/107 127/127/108
f 128/128/106 130/130/109 129/129/107
f 132/132/110 133/133/111 131/131/112
f 132/132/110 134/134/113 133/133/111
f 136/136/114 137/137/115 135/135/116
f 136/136/114 138/138/117 137/137/115
g unnamed_object1_stamm_stamm.jpg_unnamed_object1_stamm_stamm.jpg
v 0.315936 -0.530936 0.282186
v 0.150936 0.963436 0.143436
v -0.101250 0.963436 0.143436
v -0.030936 -0.530936 0.368436
v 0.246564 3.057814 0.227814
v 0.037500 3.057814 0.227814
v 0.118122 4.673128 0.084372
v -0.068436 4.673128 0.084372
v 0.072186 5.868436 0.029064
v -0.022500 5.868436 0.029064
v 0.141564 -0.530936 -0.285936
v 0.229686 0.963436 -0.096564
v 0.465936 -0.530936 0.038436
v 0.024372 0.963436 -0.245628
v 0.142500 3.057814 -0.092814
v 0.311250 3.057814 0.029064
v 0.024372 4.673128 -0.203436
v 0.176250 4.673128 -0.092814
v 0.024372 5.868436 -0.118128
v 0.102186 5.868436 -0.061878
v 0.072186 5.868436 0.029064
v -0.224064 -0.530936 0.038436
v -0.180000 0.963436 -0.096564
v -0.050622 3.057814 0.029064
v -0.126564 4.673128 -0.092814
v -0.052500 5.868436 -0.061878
v 0.102186 5.868436 -0.061878
v 0.024372 5.868436 -0.118128
v -0.052500 5.868436 -0.061878
v -0.022500 5.868436 0.029064
v 0.072186 5.868436 0.029064
vn 0.5799 0.1609 0.7986
vn 0.9627 0.0571 -0.2645
vn 0.5854 0.0399 0.8098
vn 0.9821 0.1443 -0.1213
vn -0.5301 0.0530 0.8463
vn 0.5865 0.0294 0.8094
vn -0.3895 0.1192 0.9133
vn -0.9722 0.0013 -0.2343
vn -0.9512 0.0387 -0.3060
vn -0.9547 0.0048 -0.2975
vn -0.5457 0.0204 0.8378
vn -0.5758 0.0499 0.8161
vn 0.9493 0.0614 -0.3083
vn 0.5841 0.0889 0.8068
vn -0.0000 0.0462 0.9989
vn -0.9523 -0.0004 -0.3050
vn -0.9501 0.0669 -0.3046
vn -0.5848 0.0599 0.8090
vn 0.2679 0.0357 -0.9628
vn -0.2410 0.0367 -0.9698
vn 0.9502 0.0187 -0.3112
vn 0.2525 0.0043 -0.9676
vn -0.2247 -0.0049 -0.9744
vn 0.2336 0.0690 -0.9699
vn 0.9487 0.0508 0.3121
vn 0.9493 0.0668 -0.3073
vn -0.0000 1.0000 -0.0000
vt 0.340248 -1.132812
vt 0.699219 -1.132812
vt 0.576786 -0.791243
vt 0.393198 -0.794448
vt 0.269531 -0.791243
vt 0.393198 -0.794448
vt 0.330513 -1.132812
vt 0.285156 -1.132812
vt 0.642889 -0.312588
vt 0.359277 -0.320284
vt 0.386843 -0.312588
vt 0.359277 -0.320284
vt 0.525577 0.056399
vt 0.435539 0.045240
vt 0.320740 0.056399
vt 0.435539 0.045240
vt 0.550947 0.521345
vt 0.387078 0.521345
vt 0.424930 0.505824
vt 0.703125 -1.132812
vt 0.568741 -0.794448
vt 0.495808 -1.132812
vt 0.677232 -0.794448
vt 0.595972 -0.320284
vt 0.505563 -0.320284
vt 0.624895 0.045240
vt 0.552568 0.045240
vt 0.576415 0.505824
vt 0.518553 0.505824
vt 0.000000 1.000000
vt 0.495808 -1.132812
vt 0.568741 -0.794448
vt 0.505563 -0.320284
vt 0.552568 0.045240
vt 0.518553 0.505824
vt 0.000000 1.000000
vt 0.000000 1.000000
vt 0.000000 1.000000
vt 0.000000 1.000000
vt 0.424930 0.505824
s 1
f 141/141/118 152/161/119 142/144/120
f 141/141/118 153/162/121 152/161/119
f 142/143/120 143/145/122 141/142/118
f 142/143/120 145/149/123 143/145/122
f 142/144/120 152/161/119 145/150/123
f 143/145/122 144/147/124 141/142/118
f 143/146/122 162/171/125 144/148/124
f 143/146/122 163/172/126 162/171/125
f 143/146/122 164/173/127 163/172/126
f 145/149/123 146/151/128 143/145/122
f 145/149/123 148/155/129 146/151/128
f 145/150/123 158/167/130 147/154/131
f 146/152/128 164/173/127 143/146/122
f 147/153/131 148/155/129 145/149/123
f 147/153/131 149/157/132 148/155/129
f 148/156/129 164/173/127 146/152/128
f 148/156/129 165/174/133 164/173/127
f 148/156/129 166/175/134 165/174/133
f 149/157/132 150/158/135 148/155/129
f 150/159/135 166/175/134 148/156/129
f 151/160/136 154/163/137 152/161/119
f 151/160/136 162/171/125 154/163/137
f 152/161/119 153/162/121 151/160/136
f 152/161/119 156/165/138 145/150/123
f 154/163/137 155/164/139 152/161/119
f 154/163/137 164/173/127 155/164/139
f 155/164/139 156/165/138 152/161/119
f 155/164/139 158/167/130 156/165/138
f 155/164/139 164/173/127 157/166/140
f 156/165/138 158/167/130 145/150/123
f 157/166/140 158/167/130 155/164/139
f 157/166/140 159/168/141 158/167/130
f 157/166/140 166/175/134 159/168/141
f 158/167/130 171/180/142 147/154/131
f 159/168/141 160/169/143 158/167/130
f 160/169/143 171/180/142 158/167/130
f 162/171/125 163/172/126 154/163/137
f 163/172/126 164/173/127 154/163/137
f 164/173/127 165/174/133 157/166/140
f 165/174/133 166/175/134 157/166/140
f 167/176/144 169/178/144 161/170/144
f 168/177/144 169/178/144 167/176/144
f 169/178/144 170/179/144 161/170/144
