# Blender 3.5.1
# www.blender.org
g unnamed_object1_nadel_unnamed_object1_nadel_unnamed_object1_nadel_unnamed_object1_nadel
v 0.244686 1.854371 -6.079378
v -0.008436 0.049684 -8.049999
v -0.029064 -0.120001 -5.290000
v -1.363122 -0.184688 -6.640000
v 0.067500 -2.490936 -0.970000
v -3.064686 -2.310000 -2.170000
v 0.002814 -0.056250 -1.330000
v -2.362500 1.022814 -1.180000
v -2.662500 0.109686 -1.420000
v -1.551564 2.942814 -2.380000
v 0.041250 -0.005628 -1.750000
v 1.211250 2.720622 -1.390000
v 0.041250 2.528436 -1.090000
v 2.753436 2.618436 -1.720000
v 0.135000 0.034686 -1.120000
v 2.801250 0.303750 -0.670000
v 2.947500 -0.307500 -1.060000
v 2.136564 -2.480628 -2.650000
v 0.032814 -0.011250 -1.750000
v -1.046250 -2.498436 -1.390000
v 1.551564 2.088750 -1.210000
v 3.344064 0.317814 -2.620000
v 0.150000 0.005622 -1.930000
v 1.919064 -1.873128 -1.600000
v 2.415000 -1.061250 -1.900000
v 0.314064 -2.853750 -3.040000
v 0.090936 -0.018750 -2.350000
v -1.876878 -1.518750 -1.450000
v -1.140936 -2.211564 -1.270000
v -2.903436 -0.289686 -2.680000
v -0.009372 -0.007500 -1.720000
v -1.958436 1.810314 -1.600000
v -1.981872 1.232814 -2.560000
v 0.029064 2.875314 -2.740000
v 0.101250 -0.017814 -2.350000
v 1.860000 1.120314 -1.690000
v 1.766250 0.480000 -3.430000
v 2.096250 -1.560001 -4.720000
v 0.086250 -0.030000 -4.060000
v 0.416250 -1.860000 -3.640000
v 0.626250 -1.770000 -3.790000
v -1.383750 -1.650002 -5.110000
v 0.026250 0.029999 -4.480000
v -1.653750 0.450000 -3.790000
v -1.773750 -0.150000 -3.880000
v -1.563750 1.740000 -4.420000
v -0.033750 0.090000 -3.820000
v 0.536250 1.679999 -3.520000
v -0.513750 2.069999 -4.000000
v 1.646250 1.649999 -4.960000
v 0.026250 0.029999 -4.480000
v 1.736250 -0.180000 -3.880000
v 1.795314 2.373750 -0.460000
v 3.180000 -0.000000 -0.970000
v 0.120936 -0.000000 -0.580000
v 1.205622 -1.514064 0.200000
v 2.374686 -1.905000 -0.640000
v 0.060000 -3.408750 -1.510000
v 0.060000 -0.019686 -1.000000
v -2.353128 -1.584372 -0.670000
v -1.923750 -2.613750 -0.070000
v -3.398436 0.029064 -1.210000
v -0.039372 -0.000000 -0.370000
v -1.394064 2.414064 -0.190000
v -2.243436 1.564686 -0.700000
v 0.070314 3.639372 -1.660000
v 0.070314 -0.018750 -1.000000
v 2.065314 1.545000 0.200000
v 2.200314 -0.765000 -2.470000
v 1.110936 -2.567815 -4.030000
v 0.033750 -0.068436 -3.280000
v -1.218750 -1.585314 -3.280000
v -0.771564 -1.532814 -3.250000
v -2.436564 -0.793129 -4.660000
v -0.004686 -0.018750 -3.700000
v -1.804686 1.075314 -3.160000
v -1.773750 0.968436 -2.980000
v -0.499686 2.272500 -3.940000
v -0.019686 0.081564 -3.070000
v 1.202814 1.537500 -3.220000
v 0.615000 1.904064 -3.310000
v 2.340936 1.014371 -4.510000
v -0.000936 -0.028128 -3.700000
v 2.241564 -0.752814 -3.490000
v -0.530622 -1.662188 -6.520000
v -0.010314 0.033748 -8.069686
v -0.007500 -0.077815 -5.170000
v 1.193436 -0.812816 -6.839686
v 1.367814 0.266250 -4.120000
v 1.372500 -1.023752 -5.410000
v 0.112500 -0.045001 -4.750000
v -0.079686 -1.351879 -4.330000
v 0.742500 -1.185000 -4.480000
v -1.086564 -1.215002 -5.800000
v 0.052500 0.014063 -5.170000
v -1.266564 0.374063 -4.480000
v -1.336872 -0.236251 -4.570000
v -1.097814 1.229063 -5.110000
v -0.006564 0.074063 -4.510000
v 0.279378 1.324686 -4.210000
v -0.119064 1.431563 -4.690000
v 1.163436 1.039684 -5.650000
v 1.395000 -0.336565 -4.570000
v 1.168128 -0.701251 -4.690000
v 0.258750 -1.617188 -5.980000
v 0.059064 -0.033751 -5.320000
v -1.090314 -0.821251 -4.900000
v -1.050000 -0.445315 -5.590000
v -1.165314 0.975934 -6.400000
v 0.059064 0.049685 -5.740000
v -0.618750 1.237498 -5.050000
v -1.069686 0.854999 -5.110000
v 0.104064 1.723121 -5.680000
v 0.059064 0.134999 -5.080000
v 1.146564 0.815621 -4.780000
v 0.700314 1.173749 -5.440000
v 1.420314 -0.009380 -6.730000
v 0.790314 -1.146565 -5.020000
v 2.526564 0.868122 -2.140000
v 2.769372 -1.669686 -3.040000
v 0.057186 -0.034686 -2.620000
v 0.264372 -1.858128 -2.410000
v 0.838122 -2.161879 -3.130000
v -1.549686 -2.554687 -3.760000
v -0.004686 -0.022500 -3.040000
v -2.398122 -0.499686 -2.800000
v -1.800936 -0.828750 -2.560000
v -2.434686 1.589064 -3.670000
v -0.081564 0.045000 -2.410000
v -0.048750 2.258436 -2.470000
v -0.840000 2.202186 -2.650000
v 1.547814 2.865000 -3.790000
v 0.003750 -0.026250 -3.040000
v 2.427186 0.870000 -2.350000
v 0.760314 1.946250 -3.490000
v 2.746872 0.975000 -3.640000
v 0.090000 -0.000000 -3.130000
v 1.750314 -0.919686 -2.440000
v 0.052500 0.014063 -5.170000
v 0.059064 0.049685 -5.740000
vn -0.6968 0.7162 0.0388
vn -0.9905 0.1378 0.0011
vn -0.1090 0.9922 0.0602
vn 0.2123 0.0742 -0.9744
vn 0.3484 -0.1280 -0.9286
vn 0.0632 0.2719 -0.9602
vn 0.1077 -0.1517 -0.9825
vn -0.1280 -0.2729 -0.9535
vn 0.3359 -0.0198 -0.9417
vn -0.0182 -0.2087 -0.9778
vn -0.2264 0.0032 -0.9740
vn 0.1917 -0.4022 -0.8953
vn -0.0660 0.2916 -0.9543
vn 0.2469 0.5105 -0.8237
vn -0.3681 0.0252 -0.9295
vn -0.2172 0.0703 -0.9736
vn -0.2172 0.0704 -0.9736
vn -0.2303 0.4527 -0.8614
vn -0.1695 -0.3232 -0.9310
vn -0.1210 0.2257 -0.9667
vn -0.1210 0.2257 -0.9666
vn 0.2901 0.2478 -0.9243
vn -0.5115 0.1650 -0.8433
vn 0.3150 -0.0015 -0.9491
vn 0.3256 -0.3468 -0.8796
vn 0.2653 0.3439 -0.9008
vn 0.2203 -0.1249 -0.9674
vn 0.0200 -0.1331 -0.9909
vn 0.4117 -0.1117 -0.9045
vn -0.1986 0.1564 -0.9675
vn 0.1441 0.5454 -0.8257
vn -0.4839 -0.2777 -0.8299
vn 0.1830 0.2068 -0.9611
vn 0.1831 0.2068 -0.9611
vn 0.5377 -0.1395 -0.8315
vn -0.2197 0.4988 -0.8384
vn 0.2393 -0.1281 -0.9625
vn 0.0718 -0.2814 -0.9569
vn 0.3945 0.0319 -0.9183
vn -0.0827 -0.2062 -0.9750
vn -0.0827 -0.2061 -0.9750
vn -0.3850 0.1136 -0.9159
vn 0.2358 -0.4853 -0.8420
vn -0.1239 -0.2002 -0.9719
vn -0.1253 0.1380 -0.9825
vn -0.1084 -0.5155 -0.8500
vn 0.0203 0.1488 -0.9887
vn 0.2652 0.1435 -0.9535
vn -0.2257 0.1450 -0.9633
vn 0.2422 -0.0354 -0.9696
vn 0.2422 -0.0355 -0.9696
vn 0.2311 -0.2738 -0.9336
vn 0.2391 0.2050 -0.9491
vn 0.1924 -0.1742 -0.9657
vn -0.2417 -0.1723 -0.9549
vn 0.5902 -0.1433 -0.7944
vn 0.1102 0.3289 -0.9379
vn 0.4337 0.4253 -0.7944
vn -0.2281 0.1883 -0.9552
vn 0.3427 0.0837 -0.9357
vn 0.3427 0.0836 -0.9357
vn 0.4486 -0.4557 -0.7688
vn 0.1238 0.5954 -0.7938
vn 0.0026 -0.3686 -0.9296
vn -0.2495 -0.4041 -0.8800
vn 0.2546 -0.3082 -0.9166
vn -0.2835 -0.1038 -0.9533
vn -0.4307 0.3085 -0.8481
vn -0.0789 -0.4950 -0.8653
vn 0.3314 -0.9428 -0.0366
vn 0.9527 -0.3038 -0.0126
vn -0.5532 -0.8324 -0.0315
vn -0.2350 0.3171 -0.9188
vn -0.2350 0.3170 -0.9188
vn 0.1765 0.6963 -0.6957
vn -0.5612 -0.1773 -0.8085
vn 0.2087 0.2859 -0.9352
vn 0.2087 0.2860 -0.9352
vn 0.5818 -0.1274 -0.8033
vn -0.2327 0.6057 -0.7609
vn 0.3505 -0.1492 -0.9246
vn 0.1259 -0.3611 -0.9240
vn 0.5417 0.0769 -0.8371
vn -0.5442 0.2092 -0.8124
vn -0.2056 -0.2233 -0.9528
vn 0.1992 -0.5840 -0.7869
vn 0.0745 0.3917 -0.9171
vn 0.6167 0.3679 -0.6959
vn -0.4933 0.2809 -0.8232
vn 0.5234 0.0879 -0.8475
vn 0.0998 -0.4866 -0.8679
vn 0.6801 0.6176 -0.3950
vn 0.1282 -0.3537 -0.9265
vn -0.1937 -0.3419 -0.9196
vn 0.4367 -0.3287 -0.8374
vn -0.5027 0.4788 -0.7197
vn -0.5880 -0.1024 -0.8024
vn -0.5880 -0.1025 -0.8024
vn -0.4663 -0.6477 -0.6025
vn -0.0902 0.1049 -0.9904
vn -0.0904 0.1045 -0.9904
vn 0.0587 0.3387 -0.9391
vn -0.2319 -0.1373 -0.9630
vn 0.0352 0.2534 -0.9667
vn 0.2325 0.1321 -0.9636
vn -0.1640 0.3611 -0.9180
vn 0.3620 -0.1925 -0.9121
vn 0.3620 -0.1926 -0.9121
vn 0.2552 -0.3474 -0.9023
vn 0.4560 -0.0309 -0.8894
vn -0.0230 -0.2395 -0.9706
vn -0.0231 -0.2395 -0.9706
vn -0.4298 -0.0047 -0.9029
vn 0.3889 -0.4203 -0.8198
vn -0.0502 -0.3521 -0.9346
vn -0.0502 -0.3520 -0.9346
vn -0.1394 -0.1335 -0.9812
vn 0.0418 -0.5502 -0.8340
vt 0.998462 1.000652
vt -0.001537 0.998910
vt 1.000204 0.000653
vt 0.000205 -0.001088
vt 0.998462 1.000652
vt -0.001537 0.998910
vt 1.000204 0.000653
vt 0.000205 -0.001088
vt 0.998462 1.000652
vt -0.001537 0.998910
vt 1.000204 0.000653
vt 0.000205 -0.001088
vt 0.998462 1.000652
vt -0.001537 0.998910
vt 1.000204 0.000653
vt 0.000205 -0.001088
vt 0.998462 1.000652
vt -0.001537 0.998910
vt 1.000204 0.000653
vt 0.000205 -0.001088
vt 0.998462 1.000652
vt -0.001537 0.998910
vt 1.000204 0.000653
vt 0.000205 -0.001088
vt 0.998462 1.000652
vt -0.001537 0.998910
vt 1.000204 0.000653
vt 0.000205 -0.001088
vt 0.998462 1.000652
vt -0.001537 0.998910
vt 1.000204 0.000653
vt 0.000205 -0.001088
vt 0.998462 1.000652
vt -0.001537 0.998910
vt 1.000204 0.000653
vt 0.000205 -0.001088
vt 0.998462 1.000652
vt -0.001537 0.998910
vt 1.000204 0.000653
vt 0.000205 -0.001088
vt 0.998462 1.000652
vt -0.001537 0.998910
vt 1.000204 0.000653
vt 0.000205 -0.001088
vt 0.998462 1.000652
vt -0.001537 0.998910
vt 1.000204 0.000653
vt 0.000205 -0.001088
vt 0.998462 1.000652
vt -0.001537 0.998910
vt 1.000204 0.000653
vt 0.000205 -0.001088
vt 0.998462 1.000652
vt -0.001537 0.998910
vt 1.000204 0.000653
vt 0.000205 -0.001088
vt 0.998462 1.000652
vt -0.001537 0.998910
vt 1.000204 0.000653
vt 0.000205 -0.001088
vt 0.998462 1.000652
vt -0.001537 0.998910
vt 1.000204 0.000653
vt 0.000205 -0.001088
vt 0.998462 1.000652
vt -0.001537 0.998910
vt 1.000204 0.000653
vt 0.000205 -0.001088
vt 0.998462 1.000652
vt -0.001537 0.998910
vt 1.000204 0.000653
vt 0.000205 -0.001088
vt 0.998462 1.000652
vt -0.001537 0.998910
vt 1.000204 0.000653
vt 0.000205 -0.001088
vt 0.998462 1.000652
vt -0.001537 0.998910
vt 1.000204 0.000653
vt 0.000205 -0.001088
vt 0.998462 1.000652
vt -0.001537 0.998910
vt 1.000204 0.000653
vt 0.000205 -0.001088
vt 0.998462 1.000652
vt -0.001537 0.998910
vt 1.000204 0.000653
vt 0.000205 -0.001088
vt 0.998462 1.000652
vt -0.001537 0.998910
vt 1.000204 0.000653
vt 0.000205 -0.001088
vt 0.998462 1.000652
vt -0.001537 0.998910
vt 1.000204 0.000653
vt 0.000205 -0.001088
vt 0.998462 1.000652
vt -0.001537 0.998910
vt 1.000204 0.000653
vt 0.000205 -0.001088
vt 0.998462 1.000652
vt -0.001537 0.998910
vt 0.000205 -0.001088
vt 0.998462 1.000652
vt -0.001537 0.998910
vt 1.000204 0.000653
vt 0.000205 -0.001088
vt 0.998462 1.000652
vt -0.001537 0.998910
vt 1.000204 0.000653
vt 0.000205 -0.001088
vt 0.998462 1.000652
vt -0.001537 0.998910
vt 1.000204 0.000653
vt 0.000205 -0.001088
vt 0.998462 1.000652
vt -0.001537 0.998910
vt 0.000205 -0.001088
vt 0.998462 1.000652
vt -0.001537 0.998910
vt 1.000204 0.000653
vt 0.000205 -0.001088
vt 0.998462 1.000652
vt -0.001537 0.998910
vt 1.000204 0.000653
vt 0.000205 -0.001088
vt 0.998462 1.000652
vt -0.001537 0.998910
vt 1.000204 0.000653
vt 0.000205 -0.001088
vt 0.998462 1.000652
vt -0.001537 0.998910
vt 1.000204 0.000653
vt 0.000205 -0.001088
vt 0.998462 1.000652
vt -0.001537 0.998910
vt 1.000204 0.000653
vt 0.000205 -0.001088
vt 1.000204 0.000653
vt 1.000204 0.000653
s 1
f 2/2/1 3/3/1 1/1/2
f 2/2/1 4/4/3 3/3/1
f 6/6/4 7/7/4 5/5/5
f 6/6/4 8/8/6 7/7/4
f 10/10/7 11/11/7 9/9/8
f 10/10/7 12/12/9 11/11/7
f 14/14/10 15/15/10 13/13/11
f 14/14/10 16/16/12 15/15/10
f 18/18/13 19/19/13 17/17/14
f 18/18/13 20/20/15 19/19/13
f 22/22/16 23/23/17 21/21/18
f 22/22/16 24/24/19 23/23/17
f 26/26/20 27/27/21 25/25/22
f 26/26/20 28/28/23 27/27/21
f 30/30/24 31/31/24 29/29/25
f 30/30/24 32/32/26 31/31/24
f 34/34/27 35/35/27 33/33/28
f 34/34/27 36/36/29 35/35/27
f 38/38/30 39/39/30 37/37/31
f 38/38/30 40/40/32 39/39/30
f 42/42/33 43/43/34 41/41/35
f 42/42/33 44/44/36 43/43/34
f 46/46/37 47/47/37 45/45/38
f 46/46/37 48/48/39 47/47/37
f 50/50/40 51/51/41 49/49/42
f 50/50/40 52/52/43 51/51/41
f 54/54/44 55/55/44 53/53/45
f 54/54/44 56/56/46 55/55/44
f 58/58/47 59/59/47 57/57/48
f 58/58/47 60/60/49 59/59/47
f 62/62/50 63/63/51 61/61/52
f 62/62/50 64/64/53 63/63/51
f 66/66/54 67/67/54 65/65/55
f 66/66/54 68/68/56 67/67/54
f 70/70/57 71/71/57 69/69/58
f 70/70/57 72/72/59 71/71/57
f 74/74/60 75/75/61 73/73/62
f 74/74/60 76/76/63 75/75/61
f 78/78/64 79/79/64 77/77/65
f 78/78/64 80/80/66 79/79/64
f 82/82/67 83/83/67 81/81/68
f 82/82/67 84/84/69 83/83/67
f 86/86/70 87/87/70 85/85/71
f 86/86/70 88/88/72 87/87/70
f 90/90/73 91/91/74 89/89/75
f 90/90/73 92/92/76 91/91/74
f 94/94/77 139/139/78 93/93/79
f 96/96/80 139/139/78 94/94/77
f 98/98/81 99/99/81 97/97/82
f 98/98/81 100/100/83 99/99/81
f 101/101/84 102/102/85 95/95/85
f 102/102/85 103/103/86 95/95/85
f 105/105/87 106/106/87 104/104/88
f 105/105/87 107/107/89 106/106/87
f 109/109/90 140/140/90 108/108/91
f 111/111/92 140/140/90 109/109/90
f 113/113/93 114/114/93 112/112/94
f 113/113/93 115/115/95 114/114/93
f 116/116/96 117/117/97 110/110/98
f 117/117/97 118/118/99 110/110/98
f 120/120/100 121/121/101 119/119/102
f 120/120/100 122/122/103 121/121/101
f 124/124/104 125/125/104 123/123/105
f 124/124/104 126/126/106 125/125/104
f 128/128/107 129/129/108 127/127/109
f 128/128/107 130/130/110 129/129/108
f 132/132/111 133/133/112 131/131/113
f 132/132/111 134/134/114 133/133/112
f 136/136/115 137/137/116 135/135/117
f 136/136/115 138/138/118 137/137/116
g unnamed_object1_stamm_stamm.jpg_unnamed_object1_stamm_stamm.jpg_unnamed_object1_stamm_stamm.jpg_unnamed_object1_stamm_stamm.jpg
v 0.315936 0.282186 0.530936
v 0.150936 0.143436 -0.963436
v -0.101250 0.143436 -0.963436
v -0.030936 0.368436 0.530936
v 0.246564 0.227814 -3.057814
v 0.037500 0.227814 -3.057814
v 0.118122 0.084371 -4.673128
v -0.068436 0.084371 -4.673128
v 0.072186 0.029063 -5.868436
v -0.022500 0.029063 -5.868436
v 0.141564 -0.285936 0.530936
v 0.229686 -0.096564 -0.963436
v 0.465936 0.038436 0.530936
v 0.024372 -0.245628 -0.963436
v 0.142500 -0.092814 -3.057814
v 0.311250 0.029064 -3.057814
v 0.024372 -0.203437 -4.673128
v 0.176250 -0.092815 -4.673128
v 0.024372 -0.118129 -5.868436
v 0.102186 -0.061879 -5.868436
v 0.072186 0.029063 -5.868436
v -0.224064 0.038436 0.530936
v -0.180000 -0.096564 -0.963436
v -0.050622 0.029064 -3.057814
v -0.126564 -0.092815 -4.673128
v -0.052500 -0.061879 -5.868436
v 0.102186 -0.061879 -5.868436
v 0.024372 -0.118129 -5.868436
v -0.052500 -0.061879 -5.868436
v -0.022500 0.029063 -5.868436
v 0.072186 0.029063 -5.868436
vn 0.5799 0.7986 -0.1609
vn 0.9627 -0.2645 -0.0571
vn 0.5854 0.8098 -0.0399
vn 0.9821 -0.1213 -0.1443
vn -0.5301 0.8463 -0.0530
vn 0.5865 0.8094 -0.0294
vn -0.3895 0.9133 -0.1192
vn -0.9722 -0.2343 -0.0013
vn -0.9512 -0.3060 -0.0387
vn -0.9547 -0.2975 -0.0048
vn -0.5457 0.8378 -0.0204
vn -0.5758 0.8161 -0.0499
vn 0.9493 -0.3083 -0.0614
vn 0.5841 0.8068 -0.0889
vn -0.0000 0.9989 -0.0462
vn -0.9523 -0.3050 0.0004
vn -0.9501 -0.3046 -0.0669
vn -0.5848 0.8090 -0.0599
vn 0.2679 -0.9628 -0.0357
vn -0.2410 -0.9698 -0.0367
vn 0.9502 -0.3112 -0.0187
vn 0.2525 -0.9676 -0.0043
vn -0.2247 -0.9744 0.0049
vn 0.2336 -0.9699 -0.0690
vn 0.9485 0.3127 -0.0507
vn 0.9493 -0.3073 -0.0668
vn -0.0000 -0.0000 -1.0000
vt 0.340248 -1.132812
vt 0.699219 -1.132812
vt 0.576786 -0.791243
vt 0.393198 -0.794448
vt 0.269531 -0.791243
vt 0.393198 -0.794448
vt 0.330513 -1.132812
vt 0.285156 -1.132812
vt 0.642889 -0.312588
vt 0.359277 -0.320284
vt 0.386843 -0.312588
vt 0.359277 -0.320284
vt 0.525577 0.056399
vt 0.435539 0.045240
vt 0.320740 0.056399
vt 0.435539 0.045240
vt 0.550947 0.521345
vt 0.387078 0.521345
vt 0.424930 0.505824
vt 0.703125 -1.132812
vt 0.568741 -0.794448
vt 0.495808 -1.132812
vt 0.677232 -0.794448
vt 0.595972 -0.320284
vt 0.505563 -0.320284
vt 0.624895 0.045240
vt 0.552568 0.045240
vt 0.576415 0.505824
vt 0.518553 0.505824
vt 0.000000 1.000000
vt 0.495808 -1.132812
vt 0.568741 -0.794448
vt 0.505563 -0.320284
vt 0.552568 0.045240
vt 0.518553 0.505824
vt 0.000000 1.000000
vt 0.000000 1.000000
vt 0.000000 1.000000
vt 0.000000 1.000000
vt 0.424930 0.505824
s 1
f 141/141/119 152/161/120 142/144/121
f 141/141/119 153/162/122 152/161/120
f 142/143/121 143/145/123 141/142/119
f 142/143/121 145/149/124 143/145/123
f 142/144/121 152/161/120 145/150/124
f 143/145/123 144/147/125 141/142/119
f 143/146/123 162/171/126 144/148/125
f 143/146/123 163/172/127 162/171/126
f 143/146/123 164/173/128 163/172/127
f 145/149/124 146/151/129 143/145/123
f 145/149/124 148/155/130 146/151/129
f 145/150/124 158/167/131 147/154/132
f 146/152/129 164/173/128 143/146/123
f 147/153/132 148/155/130 145/149/124
f 147/153/132 149/157/133 148/155/130
f 148/156/130 164/173/128 146/152/129
f 148/156/130 165/174/134 164/173/128
f 148/156/130 166/175/135 165/174/134
f 149/157/133 150/158/136 148/155/130
f 150/159/136 166/175/135 148/156/130
f 151/160/137 154/163/138 152/161/120
f 151/160/137 162/171/126 154/163/138
f 152/161/120 153/162/122 151/160/137
f 152/161/120 156/165/139 145/150/124
f 154/163/138 155/164/140 152/161/120
f 154/163/138 164/173/128 155/164/140
f 155/164/140 156/165/139 152/161/120
f 155/164/140 158/167/131 156/165/139
f 155/164/140 164/173/128 157/166/141
f 156/165/139 158/167/131 145/150/124
f 157/166/141 158/167/131 155/164/140
f 157/166/141 159/168/142 158/167/131
f 157/166/141 166/175/135 159/168/142
f 158/167/131 171/180/143 147/154/132
f 159/168/142 160/169/144 158/167/131
f 160/169/144 171/180/143 158/167/131
f 162/171/126 163/172/127 154/163/138
f 163/172/127 164/173/128 154/163/138
f 164/173/128 165/174/134 157/166/141
f 165/174/134 166/175/135 157/166/141
f 167/176/145 169/178/145 161/170/145
f 168/177/145 169/178/145 167/176/145
f 169/178/145 170/179/145 161/170/145
