# Blender 3.5.1
# www.blender.org
g unnamed_object1_nadel_unnamed_object1_nadel_unnamed_object1_nad_unnamed_object1_nadel_unnamed_object1_nadel_unnamed_object1_nad
v 0.244686 6.079379 1.854370
v -0.008436 8.049999 0.049683
v -0.029064 5.290000 -0.120002
v -1.363122 6.640000 -0.184689
v 0.067500 0.970000 -2.490936
v -3.064686 2.170000 -2.310000
v 0.002814 1.330000 -0.056250
v -2.362500 1.180000 1.022814
v -2.662500 1.420000 0.109686
v -1.551564 2.380001 2.942814
v 0.041250 1.750000 -0.005628
v 1.211250 1.390000 2.720622
v 0.041250 1.090000 2.528436
v 2.753436 1.720000 2.618436
v 0.135000 1.120000 0.034686
v 2.801250 0.670000 0.303750
v 2.947500 1.060000 -0.307500
v 2.136564 2.650000 -2.480628
v 0.032814 1.750000 -0.011250
v -1.046250 1.390000 -2.498436
v 1.551564 1.210000 2.088750
v 3.344064 2.620000 0.317814
v 0.150000 1.930000 0.005622
v 1.919064 1.600000 -1.873128
v 2.415000 1.900000 -1.061250
v 0.314064 3.039999 -2.853750
v 0.090936 2.350000 -0.018750
v -1.876878 1.450000 -1.518750
v -1.140936 1.270000 -2.211564
v -2.903436 2.680000 -0.289686
v -0.009372 1.720000 -0.007500
v -1.958436 1.600000 1.810314
v -1.981872 2.560000 1.232814
v 0.029064 2.740000 2.875314
v 0.101250 2.350000 -0.017814
v 1.860000 1.690000 1.120314
v 1.766250 3.430000 0.479999
v 2.096250 4.720000 -1.560002
v 0.086250 4.060000 -0.030001
v 0.416250 3.640000 -1.860001
v 0.626250 3.790000 -1.770001
v -1.383750 5.110000 -1.650003
v 0.026250 4.480000 0.029998
v -1.653750 3.790000 0.449999
v -1.773750 3.880000 -0.150001
v -1.563750 4.420001 1.739999
v -0.033750 3.820000 0.089999
v 0.536250 3.520000 1.679999
v -0.513750 4.000000 2.069998
v 1.646250 4.960001 1.649998
v 0.026250 4.480000 0.029998
v 1.736250 3.880000 -0.180001
v 1.795314 0.460000 2.373750
v 3.180000 0.970000 -0.000000
v 0.120936 0.580000 -0.000000
v 1.205622 -0.200000 -1.514064
v 2.374686 0.640000 -1.905000
v 0.060000 1.510000 -3.408750
v 0.060000 1.000000 -0.019686
v -2.353128 0.670000 -1.584372
v -1.923750 0.070000 -2.613750
v -3.398436 1.210000 0.029064
v -0.039372 0.370000 -0.000000
v -1.394064 0.190000 2.414064
v -2.243436 0.700000 1.564686
v 0.070314 1.660001 3.639372
v 0.070314 1.000000 -0.018750
v 2.065314 -0.200000 1.545000
v 2.200314 2.470000 -0.765000
v 1.110936 4.030000 -2.567816
v 0.033750 3.280000 -0.068436
v -1.218750 3.280000 -1.585315
v -0.771564 3.250000 -1.532815
v -2.436564 4.660000 -0.793130
v -0.004686 3.700000 -0.018751
v -1.804686 3.160000 1.075314
v -1.773750 2.980000 0.968436
v -0.499686 3.940000 2.272500
v -0.019686 3.070000 0.081564
v 1.202814 3.220000 1.537500
v 0.615000 3.310000 1.904064
v 2.340936 4.510000 1.014370
v -0.000936 3.700000 -0.028129
v 2.241564 3.490000 -0.752815
v -0.530622 6.520000 -1.662189
v -0.010314 8.069686 0.033747
v -0.007500 5.170000 -0.077816
v 1.193436 6.839686 -0.812817
v 1.367814 4.120000 0.266249
v 1.372500 5.410000 -1.023753
v 0.112500 4.750000 -0.045002
v -0.079686 4.330000 -1.351880
v 0.742500 4.480000 -1.185001
v -1.086564 5.800000 -1.215003
v 0.052500 5.170000 0.014062
v -1.266564 4.480000 0.374062
v -1.336872 4.570000 -0.236252
v -1.097814 5.110000 1.229062
v -0.006564 4.510000 0.074062
v 0.279378 4.210000 1.324685
v -0.119064 4.690000 1.431562
v 1.163436 5.650000 1.039683
v 1.395000 4.570000 -0.336566
v 1.168128 4.690000 -0.701252
v 0.258750 5.980000 -1.617189
v 0.059064 5.320000 -0.033752
v -1.090314 4.900000 -0.821252
v -1.050000 5.590000 -0.445316
v -1.165314 6.400000 0.975933
v 0.059064 5.740000 0.049684
v -0.618750 5.050000 1.237497
v -1.069686 5.110000 0.854998
v 0.104064 5.680000 1.723120
v 0.059064 5.080000 0.134998
v 1.146564 4.780000 0.815620
v 0.700314 5.440000 1.173748
v 1.420314 6.730000 -0.009381
v 0.790314 5.020000 -1.146566
v 2.526564 2.140000 0.868122
v 2.769372 3.040000 -1.669686
v 0.057186 2.620000 -0.034686
v 0.264372 2.410000 -1.858128
v 0.838122 3.130000 -2.161880
v -1.549686 3.760000 -2.554688
v -0.004686 3.040000 -0.022500
v -2.398122 2.800000 -0.499686
v -1.800936 2.560000 -0.828750
v -2.434686 3.670000 1.589063
v -0.081564 2.410000 0.045000
v -0.048750 2.470000 2.258435
v -0.840000 2.650000 2.202186
v 1.547814 3.790000 2.865000
v 0.003750 3.040000 -0.026250
v 2.427186 2.350000 0.870000
v 0.760314 3.490000 1.946249
v 2.746872 3.640000 0.974999
v 0.090000 3.130000 -0.000000
v 1.750314 2.440000 -0.919686
v 0.052500 5.170000 0.014062
v 0.059064 5.740000 0.049684
vn -0.6752 -0.0402 0.7365
vn -0.5499 -0.0471 0.8339
vn -0.9905 -0.0011 0.1378
vn -0.1090 -0.0602 0.9922
vn -0.2130 -0.9743 -0.0737
vn -0.3484 -0.9286 0.1280
vn -0.2127 -0.9744 -0.0725
vn -0.0632 -0.9602 -0.2719
vn -0.1061 -0.9821 0.1557
vn 0.1280 -0.9535 0.2729
vn -0.1095 -0.9829 0.1478
vn -0.3359 -0.9417 0.0198
vn 0.0215 -0.9780 0.2077
vn 0.2264 -0.9740 -0.0032
vn 0.0142 -0.9777 0.2095
vn -0.1917 -0.8953 0.4022
vn 0.0815 -0.9530 -0.2920
vn -0.2469 -0.8237 -0.5105
vn 0.0403 -0.9577 -0.2849
vn 0.3681 -0.9295 -0.0252
vn 0.2172 -0.9736 -0.0707
vn 0.2303 -0.8614 -0.4527
vn 0.2167 -0.9738 -0.0683
vn 0.1695 -0.9310 0.3232
vn 0.1199 -0.9667 -0.2260
vn -0.2901 -0.9243 -0.2478
vn 0.1205 -0.9667 -0.2258
vn 0.5115 -0.8433 -0.1650
vn -0.3189 -0.9478 0.0071
vn -0.3256 -0.8796 0.3468
vn -0.3050 -0.9523 -0.0067
vn -0.2653 -0.9008 -0.3439
vn -0.2220 -0.9668 0.1266
vn -0.0200 -0.9909 0.1331
vn -0.2188 -0.9679 0.1238
vn -0.4117 -0.9045 0.1117
vn 0.1953 -0.9669 -0.1643
vn -0.1441 -0.8257 -0.5454
vn 0.1936 -0.9740 -0.1172
vn 0.4839 -0.8299 0.2777
vn -0.1770 -0.9598 -0.2177
vn -0.5377 -0.8315 0.1395
vn -0.1892 -0.9620 -0.1967
vn 0.2197 -0.8384 -0.4988
vn -0.2407 -0.9622 0.1276
vn -0.0718 -0.9569 0.2814
vn -0.2337 -0.9640 0.1269
vn -0.3945 -0.9183 -0.0319
vn 0.0792 -0.9731 0.2165
vn 0.3850 -0.9159 -0.1136
vn 0.0766 -0.9748 0.2094
vn -0.2358 -0.8419 0.4853
vn 0.1526 -0.9656 0.2104
vn 0.1253 -0.9825 -0.1380
vn 0.1218 -0.9731 0.1957
vn 0.1084 -0.8500 0.5155
vn -0.0186 -0.9886 -0.1495
vn -0.2652 -0.9535 -0.1435
vn -0.0227 -0.9889 -0.1471
vn 0.2257 -0.9633 -0.1450
vn -0.2462 -0.9687 0.0320
vn -0.2311 -0.9336 0.2738
vn -0.2411 -0.9698 0.0373
vn -0.2391 -0.9491 -0.2050
vn -0.1942 -0.9653 0.1744
vn 0.2417 -0.9549 0.1723
vn -0.1867 -0.9671 0.1728
vn -0.5902 -0.7944 0.1433
vn -0.0972 -0.9372 -0.3351
vn -0.4337 -0.7944 -0.4253
vn -0.1147 -0.9373 -0.3290
vn 0.2281 -0.9552 -0.1883
vn -0.3675 -0.9277 -0.0650
vn -0.4486 -0.7688 0.4557
vn -0.3439 -0.9359 -0.0764
vn -0.1238 -0.7938 -0.5954
vn -0.0033 -0.9296 0.3685
vn 0.2495 -0.8800 0.4041
vn -0.0033 -0.9297 0.3683
vn -0.2546 -0.9166 0.3082
vn 0.2999 -0.9492 0.0949
vn 0.4307 -0.8481 -0.3085
vn 0.2705 -0.9562 0.1122
vn 0.0789 -0.8653 0.4950
vn 0.3844 0.0359 -0.9225
vn 0.0350 0.0385 -0.9986
vn 0.9527 0.0126 -0.3038
vn -0.5532 0.0315 -0.8324
vn 0.2402 -0.9191 -0.3124
vn -0.1765 -0.6957 -0.6963
vn 0.2310 -0.9185 -0.3210
vn 0.5612 -0.8085 0.1773
vn -0.2164 -0.9348 -0.2815
vn -0.5818 -0.8033 0.1274
vn -0.1881 -0.9374 -0.2929
vn 0.2327 -0.7609 -0.6057
vn -0.3522 -0.9241 0.1481
vn -0.1259 -0.9240 0.3611
vn -0.3481 -0.9253 0.1504
vn -0.5417 -0.8371 -0.0769
vn 0.5442 -0.8124 -0.2092
vn 0.2118 -0.9544 0.2106
vn 0.2020 -0.9524 0.2282
vn -0.1992 -0.7869 0.5840
vn -0.0721 -0.9173 -0.3915
vn -0.6167 -0.6959 -0.3679
vn -0.0839 -0.9167 -0.3907
vn 0.4933 -0.8232 -0.2809
vn -0.5469 -0.8372 0.0008
vn -0.0998 -0.8679 0.4866
vn -0.5119 -0.8442 -0.1590
vn -0.6801 -0.3950 -0.6176
vn -0.1296 -0.9263 0.3539
vn 0.1937 -0.9196 0.3419
vn -0.1253 -0.9273 0.3527
vn -0.4367 -0.8374 0.3287
vn 0.5027 -0.7197 -0.4789
vn 0.5845 -0.8067 0.0871
vn 0.5908 -0.8017 0.0910
vn 0.4663 -0.6025 0.6477
vn 0.1120 -0.9875 -0.1105
vn -0.0587 -0.9391 -0.3387
vn 0.0904 -0.9904 -0.1045
vn 0.2319 -0.9630 0.1373
vn -0.0369 -0.9667 -0.2533
vn -0.2325 -0.9636 -0.1321
vn -0.0341 -0.9667 -0.2536
vn 0.1640 -0.9180 -0.3611
vn -0.3625 -0.9114 0.1946
vn -0.2552 -0.9023 0.3474
vn -0.3622 -0.9121 0.1923
vn -0.4560 -0.8894 0.0309
vn 0.0353 -0.9703 0.2392
vn 0.4298 -0.9029 0.0047
vn 0.0162 -0.9704 0.2408
vn -0.3889 -0.8198 0.4203
vn 0.0501 -0.9342 0.3532
vn 0.1394 -0.9812 0.1335
vn 0.0491 -0.9359 0.3489
vn -0.0418 -0.8340 0.5502
vt 0.998462 1.000652
vt -0.001537 0.998910
vt 1.000204 0.000653
vt 0.000205 -0.001088
vt 0.998462 1.000652
vt -0.001537 0.998910
vt 1.000204 0.000653
vt 0.000205 -0.001088
vt 0.998462 1.000652
vt -0.001537 0.998910
vt 1.000204 0.000653
vt 0.000205 -0.001088
vt 0.998462 1.000652
vt -0.001537 0.998910
vt 1.000204 0.000653
vt 0.000205 -0.001088
vt 0.998462 1.000652
vt -0.001537 0.998910
vt 1.000204 0.000653
vt 0.000205 -0.001088
vt 0.998462 1.000652
vt -0.001537 0.998910
vt 1.000204 0.000653
vt 0.000205 -0.001088
vt 0.998462 1.000652
vt -0.001537 0.998910
vt 1.000204 0.000653
vt 0.000205 -0.001088
vt 0.998462 1.000652
vt -0.001537 0.998910
vt 1.000204 0.000653
vt 0.000205 -0.001088
vt 0.998462 1.000652
vt -0.001537 0.998910
vt 1.000204 0.000653
vt 0.000205 -0.001088
vt 0.998462 1.000652
vt -0.001537 0.998910
vt 1.000204 0.000653
vt 0.000205 -0.001088
vt 0.998462 1.000652
vt -0.001537 0.998910
vt 1.000204 0.000653
vt 0.000205 -0.001088
vt 0.998462 1.000652
vt -0.001537 0.998910
vt 1.000204 0.000653
vt 0.000205 -0.001088
vt 0.998462 1.000652
vt -0.001537 0.998910
vt 1.000204 0.000653
vt 0.000205 -0.001088
vt 0.998462 1.000652
vt -0.001537 0.998910
vt 1.000204 0.000653
vt 0.000205 -0.001088
vt 0.998462 1.000652
vt -0.001537 0.998910
vt 1.000204 0.000653
vt 0.000205 -0.001088
vt 0.998462 1.000652
vt -0.001537 0.998910
vt 1.000204 0.000653
vt 0.000205 -0.001088
vt 0.998462 1.000652
vt -0.001537 0.998910
vt 1.000204 0.000653
vt 0.000205 -0.001088
vt 0.998462 1.000652
vt -0.001537 0.998910
vt 1.000204 0.000653
vt 0.000205 -0.001088
vt 0.998462 1.000652
vt -0.001537 0.998910
vt 1.000204 0.000653
vt 0.000205 -0.001088
vt 0.998462 1.000652
vt -0.001537 0.998910
vt 1.000204 0.000653
vt 0.000205 -0.001088
vt 0.998462 1.000652
vt -0.001537 0.998910
vt 1.000204 0.000653
vt 0.000205 -0.001088
vt 0.998462 1.000652
vt -0.001537 0.998910
vt 1.000204 0.000653
vt 0.000205 -0.001088
vt 0.998462 1.000652
vt -0.001537 0.998910
vt 1.000204 0.000653
vt 0.000205 -0.001088
vt 0.998462 1.000652
vt -0.001537 0.998910
vt 1.000204 0.000653
vt 0.000205 -0.001088
vt 0.998462 1.000652
vt -0.001537 0.998910
vt 1.000204 0.000653
vt 0.000205 -0.001088
vt 0.998462 1.000652
vt -0.001537 0.998910
vt 0.000205 -0.001088
vt 0.998462 1.000652
vt -0.001537 0.998910
vt 1.000204 0.000653
vt 0.000205 -0.001088
vt 0.998462 1.000652
vt -0.001537 0.998910
vt 1.000204 0.000653
vt 0.000205 -0.001088
vt 0.998462 1.000652
vt -0.001537 0.998910
vt 1.000204 0.000653
vt 0.000205 -0.001088
vt 0.998462 1.000652
vt -0.001537 0.998910
vt 0.000205 -0.001088
vt 0.998462 1.000652
vt -0.001537 0.998910
vt 1.000204 0.000653
vt 0.000205 -0.001088
vt 0.998462 1.000652
vt -0.001537 0.998910
vt 1.000204 0.000653
vt 0.000205 -0.001088
vt 0.998462 1.000652
vt -0.001537 0.998910
vt 1.000204 0.000653
vt 0.000205 -0.001088
vt 0.998462 1.000652
vt -0.001537 0.998910
vt 1.000204 0.000653
vt 0.000205 -0.001088
vt 0.998462 1.000652
vt -0.001537 0.998910
vt 1.000204 0.000653
vt 0.000205 -0.001088
vt 1.000204 0.000653
vt 1.000204 0.000653
s 1
f 2/2/1 3/3/2 1/1/3
f 2/2/1 4/4/4 3/3/2
f 6/6/5 5/5/6 7/7/7
f 6/6/5 7/7/7 8/8/8
f 10/10/9 9/9/10 11/11/11
f 10/10/9 11/11/11 12/12/12
f 14/14/13 13/13/14 15/15/15
f 14/14/13 15/15/15 16/16/16
f 18/18/17 17/17/18 19/19/19
f 18/18/17 19/19/19 20/20/20
f 22/22/21 21/21/22 23/23/23
f 22/22/21 23/23/23 24/24/24
f 26/26/25 25/25/26 27/27/27
f 26/26/25 27/27/27 28/28/28
f 30/30/29 29/29/30 31/31/31
f 30/30/29 31/31/31 32/32/32
f 34/34/33 33/33/34 35/35/35
f 34/34/33 35/35/35 36/36/36
f 38/38/37 37/37/38 39/39/39
f 38/38/37 39/39/39 40/40/40
f 42/42/41 41/41/42 43/43/43
f 42/42/41 43/43/43 44/44/44
f 46/46/45 45/45/46 47/47/47
f 46/46/45 47/47/47 48/48/48
f 50/50/49 49/49/50 51/51/51
f 50/50/49 51/51/51 52/52/52
f 54/54/53 53/53/54 55/55/55
f 54/54/53 55/55/55 56/56/56
f 58/58/57 57/57/58 59/59/59
f 58/58/57 59/59/59 60/60/60
f 62/62/61 61/61/62 63/63/63
f 62/62/61 63/63/63 64/64/64
f 66/66/65 65/65/66 67/67/67
f 66/66/65 67/67/67 68/68/68
f 70/70/69 69/69/70 71/71/71
f 70/70/69 71/71/71 72/72/72
f 74/74/73 73/73/74 75/75/75
f 74/74/73 75/75/75 76/76/76
f 78/78/77 77/77/78 79/79/79
f 78/78/77 79/79/79 80/80/80
f 82/82/81 81/81/82 83/83/83
f 82/82/81 83/83/83 84/84/84
f 86/86/85 87/87/86 85/85/87
f 86/86/85 88/88/88 87/87/86
f 90/90/89 89/89/90 91/91/91
f 90/90/89 91/91/91 92/92/92
f 94/94/93 93/93/94 139/139/95
f 96/96/96 94/94/93 139/139/95
f 98/98/97 97/97/98 99/99/99
f 98/98/97 99/99/99 100/100/100
f 101/101/101 95/95/102 102/102/103
f 102/102/103 95/95/102 103/103/104
f 105/105/105 104/104/106 106/106/107
f 105/105/105 106/106/107 107/107/108
f 109/109/109 108/108/110 140/140/111
f 111/111/112 109/109/109 140/140/111
f 113/113/113 112/112/114 114/114/115
f 113/113/113 114/114/115 115/115/116
f 116/116/117 110/110/118 117/117/119
f 117/117/119 110/110/118 118/118/120
f 120/120/121 119/119/122 121/121/123
f 120/120/121 121/121/123 122/122/124
f 124/124/125 123/123/126 125/125/127
f 124/124/125 125/125/127 126/126/128
f 128/128/129 127/127/130 129/129/131
f 128/128/129 129/129/131 130/130/132
f 132/132/133 131/131/134 133/133/135
f 132/132/133 133/133/135 134/134/136
f 136/136/137 135/135/138 137/137/139
f 136/136/137 137/137/139 138/138/140
g unnamed_object1_stamm_stamm.jpg_unnamed_object1_stamm_stamm.jpg_unnamed_object1_stamm_stamm.jpg_unnamed_object1_stamm_stamm
v 0.315936 -0.530936 0.282186
v 0.150936 0.963436 0.143436
v -0.101250 0.963436 0.143436
v -0.030936 -0.530936 0.368436
v 0.246564 3.057814 0.227814
v 0.037500 3.057814 0.227814
v 0.118122 4.673128 0.084370
v -0.068436 4.673128 0.084370
v 0.072186 5.868436 0.029062
v -0.022500 5.868436 0.029062
v 0.141564 -0.530936 -0.285936
v 0.229686 0.963436 -0.096564
v 0.465936 -0.530936 0.038436
v 0.024372 0.963436 -0.245628
v 0.142500 3.057814 -0.092814
v 0.311250 3.057814 0.029064
v 0.024372 4.673128 -0.203438
v 0.176250 4.673128 -0.092816
v 0.024372 5.868436 -0.118130
v 0.102186 5.868436 -0.061880
v 0.072186 5.868436 0.029062
v -0.224064 -0.530936 0.038436
v -0.180000 0.963436 -0.096564
v -0.050622 3.057814 0.029064
v -0.126564 4.673128 -0.092816
v -0.052500 5.868436 -0.061880
v 0.102186 5.868436 -0.061880
v 0.024372 5.868436 -0.118130
v -0.052500 5.868436 -0.061880
v -0.022500 5.868436 0.029062
v 0.072186 5.868436 0.029062
vn -0.5741 -0.1960 -0.7950
vn -0.5758 -0.0532 -0.8158
vn -0.9277 -0.1357 0.3479
vn -0.9751 -0.1583 0.1550
vn 0.6170 -0.1526 -0.7720
vn -0.5847 -0.0280 -0.8107
vn 0.4160 -0.1304 -0.9000
vn 0.9588 -0.0085 0.2839
vn 0.9406 -0.0757 0.3308
vn 0.9529 -0.0058 0.3033
vn 0.5220 0.0250 -0.8526
vn 0.5693 -0.0592 -0.8200
vn -0.5843 -0.0910 -0.8064
vn -0.9409 -0.0829 0.3285
vn -0.0000 -0.0462 -0.9989
vn 0.9484 -0.0179 0.3165
vn 0.9499 -0.0670 0.3054
vn 0.5855 -0.0599 -0.8085
vn -0.4109 0.0234 0.9114
vn -0.0025 0.2591 0.9659
vn -0.9583 0.0292 0.2844
vn -0.3005 0.0034 0.9538
vn 0.3129 -0.0075 0.9498
vn -0.3577 -0.0659 0.9315
vn -0.9485 -0.0507 -0.3127
vn -0.9488 -0.0667 0.3088
vn -0.0000 -1.0000 -0.0000
vt 0.340248 -1.132812
vt 0.699219 -1.132812
vt 0.576786 -0.791243
vt 0.393198 -0.794448
vt 0.269531 -0.791243
vt 0.393198 -0.794448
vt 0.330513 -1.132812
vt 0.285156 -1.132812
vt 0.642889 -0.312588
vt 0.359277 -0.320284
vt 0.386843 -0.312588
vt 0.359277 -0.320284
vt 0.525577 0.056399
vt 0.435539 0.045240
vt 0.320740 0.056399
vt 0.435539 0.045240
vt 0.550947 0.521345
vt 0.387078 0.521345
vt 0.424930 0.505824
vt 0.703125 -1.132812
vt 0.568741 -0.794448
vt 0.495808 -1.132812
vt 0.677232 -0.794448
vt 0.595972 -0.320284
vt 0.505563 -0.320284
vt 0.624895 0.045240
vt 0.552568 0.045240
vt 0.576415 0.505824
vt 0.518553 0.505824
vt 0.000000 1.000000
vt 0.495808 -1.132812
vt 0.568741 -0.794448
vt 0.505563 -0.320284
vt 0.552568 0.045240
vt 0.518553 0.505824
vt 0.000000 1.000000
vt 0.000000 1.000000
vt 0.000000 1.000000
vt 0.000000 1.000000
vt 0.424930 0.505824
s 1
f 141/141/141 142/144/142 152/161/143
f 141/141/141 152/161/143 153/162/144
f 142/143/142 141/142/141 143/145/145
f 142/143/142 143/145/145 145/149/146
f 142/144/142 145/150/146 152/161/143
f 143/145/145 141/142/141 144/147/147
f 143/146/145 144/148/147 162/171/148
f 143/146/145 162/171/148 163/172/149
f 143/146/145 163/172/149 164/173/150
f 145/149/146 143/145/145 146/151/151
f 145/149/146 146/151/151 148/155/152
f 145/150/146 147/154/153 158/167/154
f 146/152/151 143/146/145 164/173/150
f 147/153/153 145/149/146 148/155/152
f 147/153/153 148/155/152 149/157/155
f 148/156/152 146/152/151 164/173/150
f 148/156/152 164/173/150 165/174/156
f 148/156/152 165/174/156 166/175/157
f 149/157/155 148/155/152 150/158/158
f 150/159/158 148/156/152 166/175/157
f 151/160/159 152/161/143 154/163/160
f 151/160/159 154/163/160 162/171/148
f 152/161/143 151/160/159 153/162/144
f 152/161/143 145/150/146 156/165/161
f 154/163/160 152/161/143 155/164/162
f 154/163/160 155/164/162 164/173/150
f 155/164/162 152/161/143 156/165/161
f 155/164/162 156/165/161 158/167/154
f 155/164/162 157/166/163 164/173/150
f 156/165/161 145/150/146 158/167/154
f 157/166/163 155/164/162 158/167/154
f 157/166/163 158/167/154 159/168/164
f 157/166/163 159/168/164 166/175/157
f 158/167/154 147/154/153 171/180/165
f 159/168/164 158/167/154 160/169/166
f 160/169/166 158/167/154 171/180/165
f 162/171/148 154/163/160 163/172/149
f 163/172/149 154/163/160 164/173/150
f 164/173/150 157/166/163 165/174/156
f 165/174/156 157/166/163 166/175/157
f 167/176/167 161/170/167 169/178/167
f 168/177/167 167/176/167 169/178/167
f 169/178/167 161/170/167 170/179/167
