# Blender 3.5.1
# www.blender.org
g unnamed_object1_nadel_unnamed_object1_nadel_unnamed_object1_nad_unnamed_object1_nadel_unnamed_object1_nadel_unnamed_object1_nad
v 0.244686 1.854370 -6.079379
v -0.008436 0.049682 -8.049999
v -0.029064 -0.120002 -5.290000
v -1.363122 -0.184689 -6.640000
v 0.067500 -2.490936 -0.970000
v -3.064686 -2.310000 -2.170000
v 0.002814 -0.056250 -1.330000
v -2.362500 1.022814 -1.180000
v -2.662500 0.109686 -1.420000
v -1.551564 2.942814 -2.380001
v 0.041250 -0.005628 -1.750000
v 1.211250 2.720622 -1.390000
v 0.041250 2.528436 -1.090001
v 2.753436 2.618436 -1.720001
v 0.135000 0.034686 -1.120000
v 2.801250 0.303750 -0.670000
v 2.947500 -0.307500 -1.060000
v 2.136564 -2.480628 -2.650000
v 0.032814 -0.011250 -1.750000
v -1.046250 -2.498436 -1.390000
v 1.551564 2.088750 -1.210000
v 3.344064 0.317813 -2.620000
v 0.150000 0.005622 -1.930000
v 1.919064 -1.873128 -1.600000
v 2.415000 -1.061250 -1.900000
v 0.314064 -2.853750 -3.039999
v 0.090936 -0.018750 -2.350000
v -1.876878 -1.518750 -1.450000
v -1.140936 -2.211564 -1.270000
v -2.903436 -0.289687 -2.680000
v -0.009372 -0.007500 -1.720000
v -1.958436 1.810314 -1.600000
v -1.981872 1.232813 -2.560000
v 0.029064 2.875314 -2.740000
v 0.101250 -0.017814 -2.350000
v 1.860000 1.120314 -1.690000
v 1.766250 0.479999 -3.430000
v 2.096250 -1.560002 -4.719999
v 0.086250 -0.030001 -4.060000
v 0.416250 -1.860001 -3.640000
v 0.626250 -1.770001 -3.790000
v -1.383750 -1.650003 -5.110000
v 0.026250 0.029998 -4.480000
v -1.653750 0.449999 -3.790000
v -1.773750 -0.150001 -3.880000
v -1.563750 1.739999 -4.420001
v -0.033750 0.089999 -3.820000
v 0.536250 1.679998 -3.520000
v -0.513750 2.069998 -4.000000
v 1.646250 1.649998 -4.960001
v 0.026250 0.029998 -4.480000
v 1.736250 -0.180001 -3.880000
v 1.795314 2.373750 -0.460000
v 3.180000 -0.000000 -0.970000
v 0.120936 -0.000000 -0.580000
v 1.205622 -1.514064 0.200000
v 2.374686 -1.905000 -0.640000
v 0.060000 -3.408750 -1.509999
v 0.060000 -0.019686 -1.000000
v -2.353128 -1.584372 -0.670000
v -1.923750 -2.613750 -0.069999
v -3.398436 0.029064 -1.210000
v -0.039372 -0.000000 -0.370000
v -1.394064 2.414064 -0.190000
v -2.243436 1.564686 -0.700000
v 0.070314 3.639372 -1.660001
v 0.070314 -0.018750 -1.000000
v 2.065314 1.545000 0.200000
v 2.200314 -0.765000 -2.470000
v 1.110936 -2.567816 -4.030000
v 0.033750 -0.068437 -3.280000
v -1.218750 -1.585315 -3.280000
v -0.771564 -1.532815 -3.250000
v -2.436564 -0.793130 -4.660000
v -0.004686 -0.018751 -3.700000
v -1.804686 1.075313 -3.160000
v -1.773750 0.968435 -2.980000
v -0.499686 2.272499 -3.940001
v -0.019686 0.081563 -3.070000
v 1.202814 1.537499 -3.220000
v 0.615000 1.904063 -3.310000
v 2.340936 1.014370 -4.510000
v -0.000936 -0.028129 -3.700000
v 2.241564 -0.752815 -3.490000
v -0.530622 -1.662189 -6.520000
v -0.010314 0.033746 -8.069686
v -0.007500 -0.077816 -5.170000
v 1.193436 -0.812817 -6.839686
v 1.367814 0.266249 -4.120000
v 1.372500 -1.023753 -5.410000
v 0.112500 -0.045002 -4.750000
v -0.079686 -1.351880 -4.329999
v 0.742500 -1.185001 -4.480000
v -1.086564 -1.215003 -5.800000
v 0.052500 0.014062 -5.170000
v -1.266564 0.374062 -4.480000
v -1.336872 -0.236252 -4.570000
v -1.097814 1.229062 -5.110001
v -0.006564 0.074062 -4.510000
v 0.279378 1.324685 -4.210001
v -0.119064 1.431562 -4.690001
v 1.163436 1.039683 -5.650000
v 1.395000 -0.336566 -4.570000
v 1.168128 -0.701252 -4.690000
v 0.258750 -1.617189 -5.980000
v 0.059064 -0.033752 -5.320000
v -1.090314 -0.821252 -4.900000
v -1.050000 -0.445316 -5.590000
v -1.165314 0.975933 -6.400000
v 0.059064 0.049684 -5.740000
v -0.618750 1.237497 -5.050001
v -1.069686 0.854998 -5.110000
v 0.104064 1.723120 -5.680000
v 0.059064 0.134998 -5.080000
v 1.146564 0.815620 -4.780000
v 0.700314 1.173748 -5.440000
v 1.420314 -0.009381 -6.730000
v 0.790314 -1.146566 -5.020000
v 2.526564 0.868122 -2.140000
v 2.769372 -1.669687 -3.040000
v 0.057186 -0.034687 -2.620000
v 0.264372 -1.858128 -2.410000
v 0.838122 -2.161880 -3.130000
v -1.549686 -2.554688 -3.760000
v -0.004686 -0.022501 -3.040000
v -2.398122 -0.499687 -2.800000
v -1.800936 -0.828750 -2.560000
v -2.434686 1.589063 -3.670000
v -0.081564 0.045000 -2.410000
v -0.048750 2.258435 -2.470001
v -0.840000 2.202186 -2.650001
v 1.547814 2.864999 -3.790000
v 0.003750 -0.026251 -3.040000
v 2.427186 0.870000 -2.350000
v 0.760314 1.946249 -3.490000
v 2.746872 0.974999 -3.640000
v 0.090000 -0.000001 -3.130000
v 1.750314 -0.919686 -2.440000
v 0.052500 0.014062 -5.170000
v 0.059064 0.049684 -5.740000
vn -0.6752 0.7365 0.0402
vn -0.5499 0.8339 0.0471
vn -0.9905 0.1378 0.0011
vn -0.1090 0.9922 0.0602
vn -0.2130 -0.0737 0.9743
vn -0.3484 0.1280 0.9286
vn -0.2127 -0.0725 0.9744
vn -0.0632 -0.2719 0.9602
vn -0.1061 0.1557 0.9821
vn 0.1280 0.2729 0.9535
vn -0.1095 0.1478 0.9829
vn -0.3359 0.0198 0.9417
vn 0.0215 0.2077 0.9780
vn 0.2264 -0.0032 0.9740
vn 0.0142 0.2095 0.9777
vn -0.1917 0.4022 0.8953
vn 0.0815 -0.2920 0.9530
vn -0.2469 -0.5105 0.8237
vn 0.0403 -0.2849 0.9577
vn 0.3681 -0.0252 0.9295
vn 0.2172 -0.0707 0.9736
vn 0.2303 -0.4527 0.8614
vn 0.2167 -0.0683 0.9738
vn 0.1695 0.3232 0.9310
vn 0.1199 -0.2260 0.9667
vn -0.2901 -0.2478 0.9243
vn 0.1205 -0.2258 0.9667
vn 0.5115 -0.1650 0.8433
vn -0.3189 0.0071 0.9478
vn -0.3256 0.3468 0.8796
vn -0.3050 -0.0067 0.9523
vn -0.2653 -0.3439 0.9008
vn -0.2220 0.1266 0.9668
vn -0.0200 0.1331 0.9909
vn -0.2188 0.1238 0.9679
vn -0.4117 0.1117 0.9045
vn 0.1953 -0.1643 0.9669
vn -0.1441 -0.5454 0.8257
vn 0.1936 -0.1172 0.9740
vn 0.4839 0.2777 0.8299
vn -0.1770 -0.2177 0.9598
vn -0.5377 0.1395 0.8315
vn -0.1892 -0.1967 0.9620
vn 0.2197 -0.4988 0.8384
vn -0.2407 0.1276 0.9622
vn -0.0718 0.2814 0.9569
vn -0.2337 0.1269 0.9640
vn -0.3945 -0.0319 0.9183
vn 0.0792 0.2165 0.9731
vn 0.3850 -0.1136 0.9159
vn 0.0766 0.2094 0.9748
vn -0.2358 0.4853 0.8419
vn 0.1526 0.2104 0.9656
vn 0.1253 -0.1380 0.9825
vn 0.1218 0.1957 0.9731
vn 0.1084 0.5155 0.8500
vn -0.0186 -0.1495 0.9886
vn -0.2652 -0.1435 0.9535
vn -0.0227 -0.1471 0.9889
vn 0.2257 -0.1450 0.9633
vn -0.2462 0.0320 0.9687
vn -0.2311 0.2738 0.9336
vn -0.2411 0.0373 0.9698
vn -0.2391 -0.2050 0.9491
vn -0.1942 0.1744 0.9653
vn 0.2417 0.1723 0.9549
vn -0.1867 0.1728 0.9671
vn -0.5902 0.1433 0.7944
vn -0.0972 -0.3351 0.9372
vn -0.4337 -0.4253 0.7944
vn -0.1147 -0.3290 0.9373
vn 0.2281 -0.1883 0.9552
vn -0.3675 -0.0650 0.9277
vn -0.4486 0.4557 0.7688
vn -0.3439 -0.0764 0.9359
vn -0.1238 -0.5954 0.7938
vn -0.0033 0.3685 0.9296
vn 0.2495 0.4041 0.8800
vn -0.0033 0.3683 0.9297
vn -0.2546 0.3082 0.9166
vn 0.2999 0.0949 0.9492
vn 0.4307 -0.3085 0.8481
vn 0.2705 0.1122 0.9562
vn 0.0789 0.4950 0.8653
vn 0.3844 -0.9225 -0.0359
vn 0.0350 -0.9986 -0.0385
vn 0.9527 -0.3038 -0.0126
vn -0.5532 -0.8324 -0.0315
vn 0.2402 -0.3124 0.9191
vn -0.1765 -0.6963 0.6957
vn 0.2310 -0.3210 0.9185
vn 0.5612 0.1773 0.8085
vn -0.2164 -0.2815 0.9348
vn -0.5818 0.1274 0.8033
vn -0.1881 -0.2929 0.9374
vn 0.2327 -0.6057 0.7609
vn -0.3522 0.1481 0.9241
vn -0.1259 0.3611 0.9240
vn -0.3481 0.1504 0.9253
vn -0.5417 -0.0769 0.8371
vn 0.5442 -0.2092 0.8124
vn 0.2118 0.2106 0.9544
vn 0.2020 0.2282 0.9524
vn -0.1992 0.5840 0.7869
vn -0.0721 -0.3915 0.9173
vn -0.6167 -0.3679 0.6959
vn -0.0839 -0.3907 0.9167
vn 0.4933 -0.2809 0.8232
vn -0.5469 0.0008 0.8372
vn -0.0998 0.4866 0.8679
vn -0.5119 -0.1590 0.8442
vn -0.6801 -0.6176 0.3950
vn -0.1296 0.3539 0.9263
vn 0.1937 0.3419 0.9196
vn -0.1253 0.3527 0.9273
vn -0.4367 0.3287 0.8374
vn 0.5027 -0.4789 0.7197
vn 0.5845 0.0871 0.8067
vn 0.5908 0.0910 0.8017
vn 0.4663 0.6477 0.6025
vn 0.1120 -0.1105 0.9875
vn -0.0587 -0.3387 0.9391
vn 0.0904 -0.1045 0.9904
vn 0.2319 0.1373 0.9630
vn -0.0369 -0.2533 0.9667
vn -0.2325 -0.1321 0.9636
vn -0.0341 -0.2536 0.9667
vn 0.1640 -0.3611 0.9180
vn -0.3625 0.1946 0.9114
vn -0.2552 0.3474 0.9023
vn -0.3622 0.1923 0.9121
vn -0.4560 0.0309 0.8894
vn 0.0353 0.2392 0.9703
vn 0.4298 0.0047 0.9029
vn 0.0162 0.2408 0.9704
vn -0.3889 0.4203 0.8198
vn 0.0501 0.3532 0.9342
vn 0.1394 0.1335 0.9812
vn 0.0491 0.3489 0.9359
vn -0.0418 0.5502 0.8340
vt 0.998462 1.000652
vt -0.001537 0.998910
vt 1.000204 0.000653
vt 0.000205 -0.001088
vt 0.998462 1.000652
vt -0.001537 0.998910
vt 1.000204 0.000653
vt 0.000205 -0.001088
vt 0.998462 1.000652
vt -0.001537 0.998910
vt 1.000204 0.000653
vt 0.000205 -0.001088
vt 0.998462 1.000652
vt -0.001537 0.998910
vt 1.000204 0.000653
vt 0.000205 -0.001088
vt 0.998462 1.000652
vt -0.001537 0.998910
vt 1.000204 0.000653
vt 0.000205 -0.001088
vt 0.998462 1.000652
vt -0.001537 0.998910
vt 1.000204 0.000653
vt 0.000205 -0.001088
vt 0.998462 1.000652
vt -0.001537 0.998910
vt 1.000204 0.000653
vt 0.000205 -0.001088
vt 0.998462 1.000652
vt -0.001537 0.998910
vt 1.000204 0.000653
vt 0.000205 -0.001088
vt 0.998462 1.000652
vt -0.001537 0.998910
vt 1.000204 0.000653
vt 0.000205 -0.001088
vt 0.998462 1.000652
vt -0.001537 0.998910
vt 1.000204 0.000653
vt 0.000205 -0.001088
vt 0.998462 1.000652
vt -0.001537 0.998910
vt 1.000204 0.000653
vt 0.000205 -0.001088
vt 0.998462 1.000652
vt -0.001537 0.998910
vt 1.000204 0.000653
vt 0.000205 -0.001088
vt 0.998462 1.000652
vt -0.001537 0.998910
vt 1.000204 0.000653
vt 0.000205 -0.001088
vt 0.998462 1.000652
vt -0.001537 0.998910
vt 1.000204 0.000653
vt 0.000205 -0.001088
vt 0.998462 1.000652
vt -0.001537 0.998910
vt 1.000204 0.000653
vt 0.000205 -0.001088
vt 0.998462 1.000652
vt -0.001537 0.998910
vt 1.000204 0.000653
vt 0.000205 -0.001088
vt 0.998462 1.000652
vt -0.001537 0.998910
vt 1.000204 0.000653
vt 0.000205 -0.001088
vt 0.998462 1.000652
vt -0.001537 0.998910
vt 1.000204 0.000653
vt 0.000205 -0.001088
vt 0.998462 1.000652
vt -0.001537 0.998910
vt 1.000204 0.000653
vt 0.000205 -0.001088
vt 0.998462 1.000652
vt -0.001537 0.998910
vt 1.000204 0.000653
vt 0.000205 -0.001088
vt 0.998462 1.000652
vt -0.001537 0.998910
vt 1.000204 0.000653
vt 0.000205 -0.001088
vt 0.998462 1.000652
vt -0.001537 0.998910
vt 1.000204 0.000653
vt 0.000205 -0.001088
vt 0.998462 1.000652
vt -0.001537 0.998910
vt 1.000204 0.000653
vt 0.000205 -0.001088
vt 0.998462 1.000652
vt -0.001537 0.998910
vt 1.000204 0.000653
vt 0.000205 -0.001088
vt 0.998462 1.000652
vt -0.001537 0.998910
vt 1.000204 0.000653
vt 0.000205 -0.001088
vt 0.998462 1.000652
vt -0.001537 0.998910
vt 0.000205 -0.001088
vt 0.998462 1.000652
vt -0.001537 0.998910
vt 1.000204 0.000653
vt 0.000205 -0.001088
vt 0.998462 1.000652
vt -0.001537 0.998910
vt 1.000204 0.000653
vt 0.000205 -0.001088
vt 0.998462 1.000652
vt -0.001537 0.998910
vt 1.000204 0.000653
vt 0.000205 -0.001088
vt 0.998462 1.000652
vt -0.001537 0.998910
vt 0.000205 -0.001088
vt 0.998462 1.000652
vt -0.001537 0.998910
vt 1.000204 0.000653
vt 0.000205 -0.001088
vt 0.998462 1.000652
vt -0.001537 0.998910
vt 1.000204 0.000653
vt 0.000205 -0.001088
vt 0.998462 1.000652
vt -0.001537 0.998910
vt 1.000204 0.000653
vt 0.000205 -0.001088
vt 0.998462 1.000652
vt -0.001537 0.998910
vt 1.000204 0.000653
vt 0.000205 -0.001088
vt 0.998462 1.000652
vt -0.001537 0.998910
vt 1.000204 0.000653
vt 0.000205 -0.001088
vt 1.000204 0.000653
vt 1.000204 0.000653
s 1
f 2/2/1 3/3/2 1/1/3
f 2/2/1 4/4/4 3/3/2
f 6/6/5 5/5/6 7/7/7
f 6/6/5 7/7/7 8/8/8
f 10/10/9 9/9/10 11/11/11
f 10/10/9 11/11/11 12/12/12
f 14/14/13 13/13/14 15/15/15
f 14/14/13 15/15/15 16/16/16
f 18/18/17 17/17/18 19/19/19
f 18/18/17 19/19/19 20/20/20
f 22/22/21 21/21/22 23/23/23
f 22/22/21 23/23/23 24/24/24
f 26/26/25 25/25/26 27/27/27
f 26/26/25 27/27/27 28/28/28
f 30/30/29 29/29/30 31/31/31
f 30/30/29 31/31/31 32/32/32
f 34/34/33 33/33/34 35/35/35
f 34/34/33 35/35/35 36/36/36
f 38/38/37 37/37/38 39/39/39
f 38/38/37 39/39/39 40/40/40
f 42/42/41 41/41/42 43/43/43
f 42/42/41 43/43/43 44/44/44
f 46/46/45 45/45/46 47/47/47
f 46/46/45 47/47/47 48/48/48
f 50/50/49 49/49/50 51/51/51
f 50/50/49 51/51/51 52/52/52
f 54/54/53 53/53/54 55/55/55
f 54/54/53 55/55/55 56/56/56
f 58/58/57 57/57/58 59/59/59
f 58/58/57 59/59/59 60/60/60
f 62/62/61 61/61/62 63/63/63
f 62/62/61 63/63/63 64/64/64
f 66/66/65 65/65/66 67/67/67
f 66/66/65 67/67/67 68/68/68
f 70/70/69 69/69/70 71/71/71
f 70/70/69 71/71/71 72/72/72
f 74/74/73 73/73/74 75/75/75
f 74/74/73 75/75/75 76/76/76
f 78/78/77 77/77/78 79/79/79
f 78/78/77 79/79/79 80/80/80
f 82/82/81 81/81/82 83/83/83
f 82/82/81 83/83/83 84/84/84
f 86/86/85 87/87/86 85/85/87
f 86/86/85 88/88/88 87/87/86
f 90/90/89 89/89/90 91/91/91
f 90/90/89 91/91/91 92/92/92
f 94/94/93 93/93/94 139/139/95
f 96/96/96 94/94/93 139/139/95
f 98/98/97 97/97/98 99/99/99
f 98/98/97 99/99/99 100/100/100
f 101/101/101 95/95/102 102/102/103
f 102/102/103 95/95/102 103/103/104
f 105/105/105 104/104/106 106/106/107
f 105/105/105 106/106/107 107/107/108
f 109/109/109 108/108/110 140/140/111
f 111/111/112 109/109/109 140/140/111
f 113/113/113 112/112/114 114/114/115
f 113/113/113 114/114/115 115/115/116
f 116/116/117 110/110/118 117/117/119
f 117/117/119 110/110/118 118/118/120
f 120/120/121 119/119/122 121/121/123
f 120/120/121 121/121/123 122/122/124
f 124/124/125 123/123/126 125/125/127
f 124/124/125 125/125/127 126/126/128
f 128/128/129 127/127/130 129/129/131
f 128/128/129 129/129/131 130/130/132
f 132/132/133 131/131/134 133/133/135
f 132/132/133 133/133/135 134/134/136
f 136/136/137 135/135/138 137/137/139
f 136/136/137 137/137/139 138/138/140
g unnamed_object1_stamm_stamm.jpg_unnamed_object1_stamm_stamm.jpg_unnamed_object1_stamm_stamm.jpg_unnamed_object1_stamm_stamm
v 0.315936 0.282186 0.530936
v 0.150936 0.143436 -0.963436
v -0.101250 0.143436 -0.963436
v -0.030936 0.368436 0.530936
v 0.246564 0.227813 -3.057814
v 0.037500 0.227813 -3.057814
v 0.118122 0.084370 -4.673128
v -0.068436 0.084370 -4.673128
v 0.072186 0.029062 -5.868436
v -0.022500 0.029062 -5.868436
v 0.141564 -0.285936 0.530936
v 0.229686 -0.096564 -0.963436
v 0.465936 0.038436 0.530936
v 0.024372 -0.245628 -0.963436
v 0.142500 -0.092815 -3.057814
v 0.311250 0.029063 -3.057814
v 0.024372 -0.203438 -4.673128
v 0.176250 -0.092816 -4.673128
v 0.024372 -0.118130 -5.868436
v 0.102186 -0.061880 -5.868436
v 0.072186 0.029062 -5.868436
v -0.224064 0.038436 0.530936
v -0.180000 -0.096564 -0.963436
v -0.050622 0.029063 -3.057814
v -0.126564 -0.092816 -4.673128
v -0.052500 -0.061880 -5.868436
v 0.102186 -0.061880 -5.868436
v 0.024372 -0.118130 -5.868436
v -0.052500 -0.061880 -5.868436
v -0.022500 0.029062 -5.868436
v 0.072186 0.029062 -5.868436
vn -0.5741 -0.7950 0.1960
vn -0.5758 -0.8158 0.0532
vn -0.9277 0.3479 0.1357
vn -0.9751 0.1550 0.1583
vn 0.6170 -0.7720 0.1526
vn -0.5847 -0.8107 0.0280
vn 0.4160 -0.9000 0.1304
vn 0.9588 0.2839 0.0085
vn 0.9406 0.3308 0.0757
vn 0.9529 0.3033 0.0058
vn 0.5220 -0.8526 -0.0250
vn 0.5693 -0.8200 0.0592
vn -0.5843 -0.8064 0.0910
vn -0.9409 0.3285 0.0829
vn -0.0000 -0.9989 0.0462
vn 0.9484 0.3165 0.0179
vn 0.9499 0.3054 0.0670
vn 0.5855 -0.8085 0.0599
vn -0.4109 0.9114 -0.0234
vn -0.0025 0.9659 -0.2591
vn -0.9583 0.2844 -0.0292
vn -0.3005 0.9538 -0.0034
vn 0.3129 0.9498 0.0075
vn -0.3577 0.9315 0.0659
vn -0.9485 -0.3127 0.0507
vn -0.9488 0.3088 0.0667
vn -0.0000 -0.0000 1.0000
vt 0.340248 -1.132812
vt 0.699219 -1.132812
vt 0.576786 -0.791243
vt 0.393198 -0.794448
vt 0.269531 -0.791243
vt 0.393198 -0.794448
vt 0.330513 -1.132812
vt 0.285156 -1.132812
vt 0.642889 -0.312588
vt 0.359277 -0.320284
vt 0.386843 -0.312588
vt 0.359277 -0.320284
vt 0.525577 0.056399
vt 0.435539 0.045240
vt 0.320740 0.056399
vt 0.435539 0.045240
vt 0.550947 0.521345
vt 0.387078 0.521345
vt 0.424930 0.505824
vt 0.703125 -1.132812
vt 0.568741 -0.794448
vt 0.495808 -1.132812
vt 0.677232 -0.794448
vt 0.595972 -0.320284
vt 0.505563 -0.320284
vt 0.624895 0.045240
vt 0.552568 0.045240
vt 0.576415 0.505824
vt 0.518553 0.505824
vt 0.000000 1.000000
vt 0.495808 -1.132812
vt 0.568741 -0.794448
vt 0.505563 -0.320284
vt 0.552568 0.045240
vt 0.518553 0.505824
vt 0.000000 1.000000
vt 0.000000 1.000000
vt 0.000000 1.000000
vt 0.000000 1.000000
vt 0.424930 0.505824
s 1
f 141/141/141 142/144/142 152/161/143
f 141/141/141 152/161/143 153/162/144
f 142/143/142 141/142/141 143/145/145
f 142/143/142 143/145/145 145/149/146
f 142/144/142 145/150/146 152/161/143
f 143/145/145 141/142/141 144/147/147
f 143/146/145 144/148/147 162/171/148
f 143/146/145 162/171/148 163/172/149
f 143/146/145 163/172/149 164/173/150
f 145/149/146 143/145/145 146/151/151
f 145/149/146 146/151/151 148/155/152
f 145/150/146 147/154/153 158/167/154
f 146/152/151 143/146/145 164/173/150
f 147/153/153 145/149/146 148/155/152
f 147/153/153 148/155/152 149/157/155
f 148/156/152 146/152/151 164/173/150
f 148/156/152 164/173/150 165/174/156
f 148/156/152 165/174/156 166/175/157
f 149/157/155 148/155/152 150/158/158
f 150/159/158 148/156/152 166/175/157
f 151/160/159 152/161/143 154/163/160
f 151/160/159 154/163/160 162/171/148
f 152/161/143 151/160/159 153/162/144
f 152/161/143 145/150/146 156/165/161
f 154/163/160 152/161/143 155/164/162
f 154/163/160 155/164/162 164/173/150
f 155/164/162 152/161/143 156/165/161
f 155/164/162 156/165/161 158/167/154
f 155/164/162 157/166/163 164/173/150
f 156/165/161 145/150/146 158/167/154
f 157/166/163 155/164/162 158/167/154
f 157/166/163 158/167/154 159/168/164
f 157/166/163 159/168/164 166/175/157
f 158/167/154 147/154/153 171/180/165
f 159/168/164 158/167/154 160/169/166
f 160/169/166 158/167/154 171/180/165
f 162/171/148 154/163/160 163/172/149
f 163/172/149 154/163/160 164/173/150
f 164/173/150 157/166/163 165/174/156
f 165/174/156 157/166/163 166/175/157
f 167/176/167 161/170/167 169/178/167
f 168/177/167 167/176/167 169/178/167
f 169/178/167 161/170/167 170/179/167
